<?xml version="1.0" encoding="UTF-8"?>
<!-- Generated by jsxcad -->
<!DOCTYPE svg PUBLIC "-//W3C//DTD SVG 1.1 Tiny//EN" "http://www.w3.org/Graphics/SVG/1.1/DTD/svg11-tiny.dtd">
<svg baseProfile="tiny" height="116.71431318258735mm" width="84.23975903614463mm" viewBox="-42.089759036144606 -58.05766420550687 84.23975903614463 116.71431318258735" version="1.1" stroke="black" stroke-width=".1" fill="none" xmlns="http://www.w3.org/2000/svg">
<path fill="#bababa" stroke="#bababa" d="M-27.186636409733428 34.05099426829186 L-27.324074074074073 33.31979695431472 L-27.324074074074073 43.91878172588832 L-27.108556832694763 45.065378830607244 L-27.108556832694763 34.46639405903365 z"/>
<path fill="#bababa" stroke="#bababa" d="M-27.162176947028314 32.45847014841769 L-27.108556832694763 32.17319984959578 L-27.108556832694763 42.77218462116939 L-27.324074074074073 43.91878172588832 L-27.324074074074073 33.31979695431472 z"/>
<path fill="#bababa" stroke="#bababa" d="M19.4537037037037 37.58988272361281 L19.4537037037037 48.188867495186415 L21.074074074074073 48.34137055837563 L21.074074074074073 37.742385786802025 z"/>
<path fill="#bababa" stroke="#bababa" d="M21.884259259259256 37.66613425520742 L21.074074074074073 37.742385786802025 L21.074074074074073 48.34137055837563 L22.69444444444444 48.188867495186415 L22.69444444444444 37.58988272361281 z"/>
<path fill="#bababa" stroke="#bababa" d="M-14.824074074074073 43.918781725888316 L-15.039591315453384 42.77218462116939 L-15.039591315453384 32.17319984959578 L-14.824074074074074 33.31979695431472 z"/>
<path fill="#bababa" stroke="#bababa" d="M-17.94907407407407 40.08587140439932 L-19.4537037037037 39.64869595659023 L-19.4537037037037 29.04971118501663 L-17.94907407407407 29.48688663282572 z"/>
<path fill="#bababa" stroke="#bababa" d="M-15.039591315453384 45.06537883060725 L-14.824074074074073 43.918781725888316 L-14.824074074074073 33.31979695431472 L-15.039591315453382 34.46639405903365 z"/>
<path fill="#bababa" stroke="#bababa" d="M-15.039591315453386 42.77218462116939 L-15.657407407407407 41.70748730964466 L-15.657407407407408 31.10850253807106 L-15.039591315453386 32.17319984959578 z"/>
<path fill="#bababa" stroke="#bababa" d="M-17.949074074074076 29.486886632825716 L-16.653342366757006 30.191624365482227 L-16.653342366757 40.79060913705583 L-17.949074074074076 40.08587140439931 z"/>
<path fill="#bababa" stroke="#bababa" d="M-15.039591315453382 34.46639405903365 L-15.657407407407405 35.531091370558364 L-15.657407407407407 46.130076142131976 L-15.03959131545338 45.065378830607244 z"/>
<path fill="#bababa" stroke="#bababa" d="M-16.653342366756995 47.0469543147208 L-15.657407407407401 46.13007614213197 L-15.657407407407403 35.531091370558364 L-16.653342366756995 36.4479695431472 z"/>
<path fill="#bababa" stroke="#bababa" d="M-22.69444444444444 39.64869595659023 L-22.69444444444444 29.04971118501663 L-21.07407407407407 28.89720812182741 L-21.07407407407407 39.49619289340101 z"/>
<path fill="#bababa" stroke="#bababa" d="M-21.074074074074073 28.89720812182741 L-19.4537037037037 29.049711185016626 L-19.4537037037037 39.64869595659023 L-21.074074074074073 39.49619289340101 z"/>
<path fill="#bababa" stroke="#bababa" d="M-25.494805781391147 36.4479695431472 L-26.490740740740744 35.531091370558364 L-26.490740740740744 46.13007614213197 L-25.49480578139115 47.0469543147208 z"/>
<path fill="#bababa" stroke="#bababa" d="M-27.108556832694763 34.46639405903365 L-27.108556832694763 45.06537883060725 L-26.49074074074074 46.13007614213197 L-26.49074074074074 35.53109137055837 z"/>
<path fill="#bababa" stroke="#bababa" d="M15.03959131545338 45.065378830607244 L15.657407407407407 46.130076142131976 L15.657407407407405 35.531091370558364 L15.039591315453382 34.46639405903365 z"/>
<path fill="#bababa" stroke="#bababa" d="M-17.94907407407407 37.152707275803714 L-17.949074074074066 47.75169204737732 L-16.653342366756995 47.0469543147208 L-16.653342366756995 36.4479695431472 z"/>
<path fill="#bababa" stroke="#bababa" d="M-15.657407407407407 41.70748730964466 L-16.653342366757002 40.79060913705583 L-16.653342366757002 30.19162436548223 L-15.657407407407407 31.108502538071065 z"/>
<path fill="#bababa" stroke="#bababa" d="M15.039591315453382 34.46639405903365 L14.824074074074073 33.31979695431472 L14.824074074074073 43.918781725888316 L15.039591315453384 45.06537883060725 z"/>
<path fill="#bababa" stroke="#bababa" d="M-25.49480578139115 47.0469543147208 L-24.19907407407408 47.75169204737732 L-24.199074074074076 37.152707275803714 L-25.49480578139115 36.4479695431472 z"/>
<path fill="#bababa" stroke="#bababa" d="M-27.10855683269476 32.17319984959578 L-26.490740740740737 31.10850253807106 L-26.490740740740737 41.70748730964466 L-27.10855683269476 42.77218462116939 z"/>
<path fill="#bababa" stroke="#bababa" d="M-17.94907407407407 37.15270727580372 L-19.4537037037037 37.58988272361281 L-19.4537037037037 48.188867495186415 L-17.94907407407407 47.751692047377325 z"/>
<path fill="#bababa" stroke="#bababa" d="M-24.199074074074073 47.751692047377325 L-22.694444444444443 48.188867495186415 L-22.694444444444443 37.58988272361281 L-24.199074074074073 37.15270727580372 z"/>
<path fill="#bababa" stroke="#bababa" d="M22.69444444444444 39.64869595659023 L21.074074074074073 39.49619289340101 L21.074074074074073 28.89720812182741 L22.69444444444444 29.049711185016626 z"/>
<path fill="#bababa" stroke="#bababa" d="M19.4537037037037 29.049711185016626 L21.074074074074073 28.89720812182741 L21.074074074074073 39.49619289340101 L19.4537037037037 39.64869595659023 z"/>
<path fill="#bababa" stroke="#bababa" d="M24.199074074074073 40.08587140439932 L22.694444444444443 39.64869595659023 L22.694444444444443 29.049711185016626 L24.199074074074073 29.48688663282572 z"/>
<path fill="#bababa" stroke="#bababa" d="M17.94907407407407 29.48688663282572 L19.4537037037037 29.04971118501663 L19.4537037037037 39.64869595659023 L17.94907407407407 40.08587140439932 z"/>
<path fill="#bababa" stroke="#bababa" d="M25.494805781391147 40.79060913705583 L24.199074074074066 40.08587140439931 L24.199074074074066 29.486886632825716 L25.49480578139114 30.191624365482227 z"/>
<path fill="#bababa" stroke="#bababa" d="M16.653342366757006 30.191624365482227 L17.949074074074076 29.486886632825716 L17.949074074074076 40.08587140439931 L16.653342366757 40.79060913705583 z"/>
<path fill="#bababa" stroke="#bababa" d="M26.490740740740737 41.70748730964466 L25.494805781391143 40.79060913705583 L25.494805781391143 30.19162436548223 L26.490740740740737 31.108502538071065 z"/>
<path fill="#bababa" stroke="#bababa" d="M15.657407407407407 31.108502538071065 L16.653342366757002 30.19162436548223 L16.653342366757002 40.79060913705583 L15.657407407407407 41.70748730964466 z"/>
<path fill="#bababa" stroke="#bababa" d="M27.10855683269476 42.77218462116939 L26.490740740740737 41.70748730964466 L26.490740740740737 31.10850253807106 L27.10855683269476 32.17319984959578 z"/>
<path fill="#bababa" stroke="#bababa" d="M15.039591315453386 32.17319984959578 L15.657407407407408 31.10850253807106 L15.657407407407407 41.70748730964466 L15.039591315453386 42.77218462116939 z"/>
<path fill="#bababa" stroke="#bababa" d="M15.039591315453384 42.77218462116939 L14.824074074074073 43.918781725888316 L14.824074074074074 33.31979695431472 L15.039591315453384 32.17319984959578 z"/>
<path fill="#bababa" stroke="#bababa" d="M-22.826370604699708 29.088042796365745 L-22.69444444444444 29.049711185016626 L-22.69444444444444 39.64869595659023 L-24.19907407407407 40.08587140439932 L-24.19907407407407 29.486886632825716 z"/>
<path fill="#bababa" stroke="#bababa" d="M17.94907407407407 37.152707275803714 L16.653342366756995 36.4479695431472 L16.653342366756995 47.0469543147208 L17.949074074074066 47.75169204737732 z"/>
<path fill="#bababa" stroke="#bababa" d="M24.19907407407408 47.75169204737732 L25.49480578139115 47.0469543147208 L25.49480578139115 36.4479695431472 L24.199074074074076 37.152707275803714 z"/>
<path fill="#bababa" stroke="#bababa" d="M22.694444444444443 48.188867495186415 L24.199074074074073 47.751692047377325 L24.199074074074073 37.15270727580372 L22.694444444444443 37.58988272361281 z"/>
<path fill="#bababa" stroke="#bababa" d="M26.49074074074074 35.531091370558364 L26.49074074074074 46.130076142131976 L27.108556832694767 45.065378830607244 L27.108556832694763 34.46639405903365 z"/>
<path fill="#bababa" stroke="#bababa" d="M27.108556832694763 32.17319984959578 L27.324074074074073 33.31979695431472 L27.324074074074073 43.918781725888316 L27.108556832694763 42.77218462116939 z"/>
<path fill="#bababa" stroke="#bababa" d="M21.074074074074073 -48.94035532994924 L22.69444444444444 -48.78785226676002 L22.69444444444444 -38.18886749518643 L21.074074074074073 -38.341370558375644 z"/>
<path fill="#bababa" stroke="#bababa" d="M16.653342366756995 36.4479695431472 L15.657407407407403 35.531091370558364 L15.657407407407401 46.13007614213197 L16.653342366756995 47.0469543147208 z"/>
<path fill="#bababa" stroke="#bababa" d="M19.4537037037037 -48.78785226676002 L21.074074074074073 -48.94035532994924 L21.074074074074073 -38.34137055837564 L19.4537037037037 -38.18886749518642 z"/>
<path fill="#bababa" stroke="#bababa" d="M17.94907407407407 -48.35067681895093 L19.4537037037037 -48.78785226676002 L19.4537037037037 -38.18886749518642 L17.94907407407407 -37.75169204737733 z"/>
<path fill="#bababa" stroke="#bababa" d="M26.490740740740748 -36.13007614213197 L25.494805781391154 -37.04695431472081 L25.494805781391154 -47.64593908629441 L26.490740740740748 -46.729060913705574 z"/>
<path fill="#bababa" stroke="#bababa" d="M15.6574074074074 -46.729060913705574 L16.65334236675699 -47.64593908629441 L16.65334236675699 -37.04695431472081 L15.657407407407398 -36.13007614213197 z"/>
<path fill="#bababa" stroke="#bababa" d="M27.108556832694767 -35.06537883060725 L26.49074074074074 -36.130076142131976 L26.49074074074074 -46.729060913705574 L27.108556832694763 -45.664363602180856 z"/>
<path fill="#bababa" stroke="#bababa" d="M14.824074074074074 -33.918781725888316 L15.039591315453384 -32.77218462116939 L15.039591315453384 -43.37116939274299 L14.824074074074074 -44.51776649746193 z"/>
<path fill="#bababa" stroke="#bababa" d="M27.10855683269476 -43.371169392742985 L26.490740740740737 -42.30647208121827 L26.490740740740737 -31.707487309644666 L27.10855683269476 -32.77218462116939 z"/>
<path fill="#bababa" stroke="#bababa" d="M22.694444444444443 -29.648695956590235 L24.199074074074073 -30.085871404399324 L24.199074074074073 -40.684856175972925 L22.694444444444443 -40.247680728163836 z"/>
<path fill="#bababa" stroke="#bababa" d="M25.494805781391157 -37.0469543147208 L24.199074074074087 -37.75169204737732 L24.199074074074087 -48.350676818950916 L25.494805781391157 -47.645939086294405 z"/>
<path fill="#bababa" stroke="#bababa" d="M19.4537037037037 -40.247680728163836 L17.94907407407407 -40.684856175972925 L17.94907407407407 -30.085871404399327 L19.4537037037037 -29.648695956590235 z"/>
<path fill="#bababa" stroke="#bababa" d="M27.324074074074073 -33.918781725888316 L27.108556832694763 -35.06537883060725 L27.108556832694763 -45.664363602180856 L27.324074074074073 -44.51776649746193 z"/>
<path fill="#bababa" stroke="#bababa" d="M19.4537037037037 -29.64869595659023 L21.074074074074073 -29.496192893401012 L21.074074074074073 -40.09517766497462 L19.4537037037037 -40.247680728163836 z"/>
<path fill="#bababa" stroke="#bababa" d="M25.49480578139114 -30.790609137055835 L26.490740740740733 -31.70748730964467 L26.490740740740737 -42.30647208121827 L25.49480578139114 -41.389593908629436 z"/>
<path fill="#bababa" stroke="#bababa" d="M14.824074074074073 -44.51776649746193 L15.039591315453382 -45.664363602180856 L15.039591315453382 -35.06537883060725 L14.824074074074073 -33.918781725888316 z"/>
<path fill="#bababa" stroke="#bababa" d="M21.074074074074073 -29.496192893401012 L22.69444444444444 -29.64869595659023 L22.69444444444444 -40.247680728163836 L21.074074074074073 -40.09517766497462 z"/>
<path fill="#bababa" stroke="#bababa" d="M15.039591315453386 -32.77218462116939 L15.657407407407408 -31.707487309644666 L15.657407407407408 -42.30647208121827 L15.039591315453386 -43.371169392742985 z"/>
<path fill="#bababa" stroke="#bababa" d="M15.039591315453382 -45.664363602180856 L15.657407407407405 -46.729060913705574 L15.657407407407405 -36.130076142131976 L15.03959131545338 -35.06537883060725 z"/>
<path fill="#bababa" stroke="#bababa" d="M24.199074074074062 -40.68485617597292 L24.199074074074062 -30.085871404399313 L25.494805781391136 -30.790609137055828 L25.494805781391136 -41.389593908629436 z"/>
<path fill="#bababa" stroke="#bababa" d="M24.199074074074073 -37.751692047377325 L22.694444444444443 -38.188867495186415 L22.694444444444443 -48.787852266760034 L24.199074074074073 -48.35067681895094 z"/>
<path fill="#bababa" stroke="#bababa" d="M16.65334236675701 -30.790609137055835 L17.94907407407408 -30.08587140439932 L17.94907407407408 -40.68485617597292 L16.65334236675701 -41.389593908629436 z"/>
<path fill="#bababa" stroke="#bababa" d="M16.653342366757006 -41.389593908629436 L15.65740740740741 -42.30647208121827 L15.657407407407412 -31.70748730964467 L16.653342366757006 -30.790609137055835 z"/>
<path fill="#bababa" stroke="#bababa" d="M27.324074074074073 -44.51776649746192 L27.108556832694763 -43.37116939274299 L27.10855683269476 -32.77218462116939 L27.324074074074073 -33.918781725888316 z"/>
<path fill="#bababa" stroke="#bababa" d="M-25.062988969546954 29.956762781727242 L-24.199074074074066 29.486886632825712 L-24.199074074074073 40.08587140439932 L-25.494805781391143 40.79060913705583 L-25.49480578139114 30.191624365482227 z"/>
<path fill="#bababa" stroke="#bababa" d="M27.324074074074073 33.31979695431472 L27.108556832694763 34.46639405903365 L27.108556832694763 45.06537883060725 L27.324074074074073 43.918781725888316 z"/>
<path fill="#bababa" stroke="#bababa" d="M16.653342366756988 -47.645939086294405 L17.94907407407406 -48.350676818950916 L17.94907407407406 -37.75169204737732 L16.653342366756988 -37.0469543147208 z"/>
<path fill="#bababa" stroke="#bababa" d="M-21.074074074074073 -40.09517766497462 L-21.074074074074073 -29.496192893401012 L-19.4537037037037 -29.64869595659023 L-19.4537037037037 -40.247680728163836 z"/>
<path fill="#bababa" stroke="#bababa" d="M-19.4537037037037 -38.18886749518642 L-21.074074074074073 -38.34137055837564 L-21.074074074074073 -48.94035532994924 L-19.4537037037037 -48.78785226676002 z"/>
<path fill="#bababa" stroke="#bababa" d="M-22.69444444444444 -48.78785226676002 L-21.074074074074073 -48.94035532994924 L-21.074074074074073 -38.341370558375644 L-22.69444444444444 -38.18886749518643 z"/>
<path fill="#bababa" stroke="#bababa" d="M-17.94907407407407 -37.75169204737733 L-19.4537037037037 -38.18886749518642 L-19.4537037037037 -48.78785226676002 L-17.94907407407407 -48.35067681895093 z"/>
<path fill="#bababa" stroke="#bababa" d="M-22.694444444444443 -38.188867495186415 L-24.199074074074073 -37.751692047377325 L-24.199074074074073 -48.35067681895094 L-22.694444444444443 -48.787852266760034 z"/>
<path fill="#bababa" stroke="#bababa" d="M-16.653342366756988 -37.0469543147208 L-17.94907407407406 -37.75169204737732 L-17.94907407407406 -48.350676818950916 L-16.653342366756988 -47.645939086294405 z"/>
<path fill="#bababa" stroke="#bababa" d="M-25.494805781391157 -47.645939086294405 L-24.199074074074087 -48.350676818950916 L-24.199074074074087 -37.75169204737732 L-25.494805781391157 -37.0469543147208 z"/>
<path fill="#bababa" stroke="#bababa" d="M-15.657407407407398 -36.13007614213197 L-16.65334236675699 -37.04695431472081 L-16.65334236675699 -47.64593908629441 L-15.6574074074074 -46.729060913705574 z"/>
<path fill="#bababa" stroke="#bababa" d="M-26.490740740740748 -46.729060913705574 L-25.494805781391154 -47.64593908629441 L-25.494805781391154 -37.04695431472081 L-26.490740740740748 -36.13007614213197 z"/>
<path fill="#bababa" stroke="#bababa" d="M-15.03959131545338 -35.06537883060725 L-15.657407407407405 -36.130076142131976 L-15.657407407407405 -46.729060913705574 L-15.039591315453382 -45.664363602180856 z"/>
<path fill="#bababa" stroke="#bababa" d="M-15.65740740740741 -42.30647208121827 L-16.653342366757006 -41.389593908629436 L-16.653342366757006 -30.790609137055835 L-15.657407407407412 -31.70748730964467 z"/>
<path fill="#bababa" stroke="#bababa" d="M-27.108556832694763 -43.37116939274299 L-27.324074074074073 -44.51776649746193 L-27.324074074074073 -33.918781725888316 L-27.10855683269476 -32.77218462116939 z"/>
<path fill="#bababa" stroke="#bababa" d="M-15.039591315453386 -43.371169392742985 L-15.657407407407408 -42.30647208121827 L-15.657407407407408 -31.707487309644666 L-15.039591315453386 -32.77218462116939 z"/>
<path fill="#bababa" stroke="#bababa" d="M19.4537037037037 37.58988272361281 L17.94907407407407 37.15270727580372 L17.94907407407407 47.751692047377325 L19.4537037037037 48.188867495186415 z"/>
<path fill="#bababa" stroke="#bababa" d="M-14.824074074074074 -44.51776649746193 L-15.039591315453384 -43.37116939274299 L-15.039591315453384 -32.77218462116939 L-14.824074074074074 -33.918781725888316 z"/>
<path fill="#bababa" stroke="#bababa" d="M-27.10855683269476 -32.77218462116939 L-26.490740740740737 -31.707487309644666 L-26.490740740740737 -42.30647208121827 L-27.10855683269476 -43.371169392742985 z"/>
<path fill="#bababa" stroke="#bababa" d="M-27.216315453384418 -45.09106504982139 L-27.108556832694763 -45.664363602180856 L-27.108556832694763 -35.06537883060725 L-27.324074074074073 -33.918781725888316 L-27.324074074074073 -44.51776649746193 z"/>
<path fill="#bababa" stroke="#bababa" d="M-17.94907407407408 -30.08587140439932 L-16.65334236675701 -30.790609137055835 L-16.65334236675701 -41.389593908629436 L-17.94907407407408 -40.68485617597292 z"/>
<path fill="#bababa" stroke="#bababa" d="M-25.494805781391136 -30.790609137055835 L-24.199074074074066 -30.08587140439932 L-24.199074074074066 -40.68485617597292 L-25.494805781391136 -41.389593908629436 z"/>
<path fill="#bababa" stroke="#bababa" d="M-27.108556832694763 -45.664363602180856 L-26.49074074074074 -46.729060913705574 L-26.49074074074074 -36.130076142131976 L-27.108556832694767 -35.06537883060725 z"/>
<path fill="#bababa" stroke="#bababa" d="M-19.4537037037037 -29.648695956590235 L-17.94907407407407 -30.085871404399327 L-17.94907407407407 -40.684856175972925 L-19.4537037037037 -40.247680728163836 z"/>
<path fill="#bababa" stroke="#bababa" d="M-25.49480578139114 -41.389593908629436 L-26.490740740740737 -42.30647208121827 L-26.490740740740733 -31.70748730964467 L-25.49480578139114 -30.790609137055835 z"/>
<path fill="#bababa" stroke="#bababa" d="M-14.824074074074073 -33.918781725888316 L-15.039591315453382 -35.06537883060725 L-15.039591315453382 -45.664363602180856 L-14.824074074074073 -44.51776649746193 z"/>
<path fill="#bababa" stroke="#bababa" d="M-24.199074074074073 -30.085871404399324 L-22.694444444444443 -29.648695956590235 L-22.694444444444443 -40.247680728163836 L-24.199074074074073 -40.684856175972925 z"/>
<path fill="#bababa" stroke="#bababa" d="M-21.074074074074073 -40.09517766497462 L-22.69444444444444 -40.247680728163836 L-22.69444444444444 -29.64869595659023 L-21.074074074074073 -29.496192893401012 z"/>
<path fill="#bababa" stroke="#bababa" d="M37.520370370370365 58.05766420550683 L-36.779629629629625 58.05766420550683 L-36.779629629629625 47.458679433933234 L37.520370370370365 47.458679433933234 z"/>
<path fill="#bababa" stroke="#bababa" d="M38.97926829268292 57.82706108874496 L37.52037037037036 58.05766420550684 L37.52037037037036 47.458679433933234 L38.97926829268292 47.22807631717136 z"/>
<path fill="#bababa" stroke="#bababa" d="M40.2632075471698 57.30192010593687 L38.97926829268292 57.82706108874496 L38.97926829268292 47.22807631717136 L40.2632075471698 46.702935334363275 z"/>
<path fill="#bababa" stroke="#bababa" d="M41.280434782608694 56.52315989847715 L40.263207547169806 57.301920105936865 L40.263207547169806 46.70293533436326 L41.280434782608694 45.92417512690355 z"/>
<path fill="#bababa" stroke="#bababa" d="M41.93260869565217 55.573604060913695 L41.280434782608694 56.52315989847715 L41.280434782608694 45.92417512690355 L41.93260869565217 44.9746192893401 z"/>
<path fill="#bababa" stroke="#bababa" d="M42.15 54.53299492385786 L41.93260869565217 55.573604060913695 L41.93260869565217 44.97461928934009 L42.15 43.93401015228425 z"/>
<path fill="#bababa" stroke="#bababa" d="M42.15 -44.53299492385786 L42.15 54.53299492385786 L42.15 43.93401015228426 L42.15 -55.13197969543147 z"/>
<path fill="#bababa" stroke="#bababa" d="M41.93260869565217 -45.573604060913695 L42.15 -44.53299492385786 L42.15 -55.13197969543146 L41.93260869565217 -56.17258883248731 z"/>
<path fill="#bababa" stroke="#bababa" d="M41.280434782608694 -46.523159898477154 L41.93260869565217 -45.5736040609137 L41.93260869565217 -56.1725888324873 L41.280434782608694 -57.12214467005075 z"/>
<path fill="#bababa" stroke="#bababa" d="M40.263207547169806 -47.30192010593687 L41.280434782608694 -46.523159898477154 L41.280434782608694 -57.12214467005076 L40.263207547169806 -57.90090487751047 z"/>
<path fill="#bababa" stroke="#bababa" d="M38.97926829268292 -47.82706108874497 L40.2632075471698 -47.30192010593688 L40.2632075471698 -57.90090487751048 L38.97926829268292 -58.42604586031857 z"/>
<path fill="#bababa" stroke="#bababa" d="M37.52037037037036 -48.057664205506846 L38.97926829268292 -47.82706108874497 L38.97926829268292 -58.42604586031857 L37.52037037037036 -58.656648977080444 z"/>
<path fill="#bababa" stroke="#bababa" d="M-36.779629629629625 -48.05766420550684 L37.520370370370365 -48.05766420550684 L37.520370370370365 -58.656648977080444 L-36.779629629629625 -58.656648977080444 z"/>
<path fill="#bababa" stroke="#bababa" d="M-38.2611111111111 -47.9803462189249 L-36.77962962962962 -48.057664205506846 L-36.77962962962962 -58.656648977080444 L-38.2611111111111 -58.5793309904985 z"/>
<path fill="#bababa" stroke="#bababa" d="M-39.64999999999999 -47.59932318104907 L-38.2611111111111 -47.9803462189249 L-38.2611111111111 -58.579330990498505 L-39.64999999999999 -58.19830795262268 z"/>
<path fill="#bababa" stroke="#bababa" d="M-40.81666666666667 -46.93888324873095 L-39.650000000000006 -47.59932318104905 L-39.650000000000006 -58.19830795262266 L-40.81666666666666 -57.53786802030456 z"/>
<path fill="#bababa" stroke="#bababa" d="M-41.65 -46.071286691679525 L-40.81666666666666 -46.93888324873095 L-40.81666666666666 -57.53786802030456 L-41.65 -56.67027146325313 z"/>
<path fill="#bababa" stroke="#bababa" d="M-42.08975903614458 -45.06370558375634 L-41.65 -46.071286691679525 L-41.65 -56.67027146325314 L-42.08975903614458 -55.66269035532994 z"/>
<path fill="#bababa" stroke="#bababa" d="M-42.08975903614458 55.063705583756345 L-42.08975903614458 -45.063705583756345 L-42.08975903614458 -55.66269035532994 L-42.08975903614458 44.46472081218274 z"/>
<path fill="#bababa" stroke="#bababa" d="M-41.65 56.07128669167953 L-42.08975903614458 55.06370558375634 L-42.08975903614458 44.46472081218273 L-41.65 45.47230192010592 z"/>
<path fill="#bababa" stroke="#bababa" d="M-40.81666666666666 56.938883248730946 L-41.65 56.071286691679525 L-41.65 45.47230192010593 L-40.81666666666666 46.33989847715735 z"/>
<path fill="#bababa" stroke="#bababa" d="M-39.65 57.59932318104906 L-40.81666666666666 56.93888324873095 L-40.81666666666667 46.33989847715735 L-39.650000000000006 47.000338409475454 z"/>
<path fill="#bababa" stroke="#bababa" d="M-38.2611111111111 57.980346218924886 L-39.64999999999999 57.599323181049066 L-39.64999999999999 47.00033840947547 L-38.2611111111111 47.38136144735129 z"/>
<path fill="#bababa" stroke="#bababa" d="M-36.77962962962962 58.05766420550683 L-38.2611111111111 57.980346218924886 L-38.2611111111111 47.38136144735129 L-36.77962962962962 47.458679433933234 z"/>
<path fill="#bababa" stroke="#bababa" d="M-21.074074074074073 37.742385786802025 L-22.69444444444444 37.58988272361281 L-22.69444444444444 48.188867495186415 L-21.074074074074073 48.34137055837563 z"/>
<path fill="#bababa" stroke="#bababa" d="M-25.606347870981775 30.294312303394747 L-25.494805781391143 30.19162436548223 L-25.494805781391143 40.79060913705583 L-26.490740740740737 41.70748730964466 L-26.490740740740737 31.10850253807106 z"/>
<path fill="#bababa" stroke="#bababa" d="M-19.4537037037037 37.58988272361281 L-21.074074074074073 37.742385786802025 L-21.074074074074073 48.34137055837563 L-19.4537037037037 48.188867495186415 z"/>
<path fill="#bababa" stroke="#bababa" d="M25.49480578139115 47.0469543147208 L26.490740740740744 46.13007614213197 L26.490740740740744 35.531091370558364 L25.494805781391147 36.4479695431472 z"/>
<path fill="#bababa" stroke="#bababa" d="M40.263207547169806 -57.90090487751047 L41.280434782608694 -57.12214467005076 L41.93260869565217 -56.1725888324873 L42.15 -55.13197969543147 L42.15 43.93401015228426 L41.93260869565217 44.97461928934009 L41.280434782608694 45.92417512690355 L40.263207547169806 46.70293533436326 L38.979268292682924 47.22807631717135 L37.520370370370365 47.45867943393323 L-36.779629629629625 47.45867943393323 L-38.261111111111106 47.38136144735128 L-39.65 47.000338409475454 L-40.81666666666666 46.33989847715735 L-41.65 45.47230192010593 L-42.08975903614458 44.46472081218274 L-42.08975903614458 -55.66269035532994 L-41.65 -56.67027146325314 L-40.81666666666666 -57.53786802030455 L-39.65 -58.19830795262266 L-38.261111111111106 -58.57933099049849 L-36.779629629629625 -58.65664897708042 L37.520370370370365 -58.65664897708042 L38.979268292682924 -58.42604586031856 z M-20.263888888888886 -40.17142919656922 L-19.453703703703702 -40.24768072816383 L-17.949074074074073 -40.684856175972925 L-16.653342366757 -41.38959390862943 L-15.657407407407407 -42.30647208121827 L-15.039591315453384 -43.37116939274299 L-14.824074074074073 -44.51776649746192 L-15.039591315453384 -45.664363602180856 L-15.657407407407407 -46.729060913705574 L-16.653342366757 -47.645939086294405 L-17.949074074074073 -48.35067681895092 L-19.453703703703702 -48.78785226676001 L-21.074074074074073 -48.940355329949234 L-22.694444444444443 -48.78785226676001 L-24.199074074074073 -48.35067681895092 L-25.494805781391147 -47.645939086294405 L-26.49074074074074 -46.729060913705574 L-27.108556832694763 -45.664363602180856 L-27.324074074074073 -44.51776649746192 L-27.108556832694763 -43.37116939274299 L-26.49074074074074 -42.30647208121827 L-25.494805781391147 -41.38959390862943 L-24.199074074074073 -40.684856175972925 L-22.694444444444443 -40.24768072816383 L-21.074074074074073 -40.095177664974614 z M24.199074074074073 -40.684856175972925 L25.494805781391147 -41.38959390862943 L26.49074074074074 -42.30647208121827 L27.108556832694763 -43.37116939274299 L27.324074074074073 -44.51776649746192 L27.108556832694763 -45.664363602180856 L26.49074074074074 -46.729060913705574 L25.494805781391147 -47.645939086294405 L24.199074074074073 -48.35067681895092 L22.694444444444443 -48.78785226676001 L21.074074074074073 -48.940355329949234 L19.453703703703702 -48.78785226676001 L17.949074074074073 -48.35067681895092 L16.653342366757 -47.645939086294405 L15.657407407407407 -46.729060913705574 L15.039591315453384 -45.664363602180856 L14.824074074074073 -44.51776649746192 L15.039591315453384 -43.37116939274299 L15.657407407407407 -42.30647208121827 L16.653342366757 -41.38959390862943 L17.949074074074073 -40.684856175972925 L19.453703703703702 -40.24768072816383 L21.074074074074073 -40.095177664974614 L22.694444444444443 -40.24768072816383 z M-24.19535431585598 29.485805843950686 L-24.199074074074073 29.486886632825712 L-25.494805781391147 30.19162436548223 L-26.49074074074074 31.10850253807106 L-27.108556832694763 32.173199849595775 L-27.324074074074073 33.31979695431472 L-27.108556832694763 34.46639405903365 L-26.49074074074074 35.53109137055837 L-25.494805781391147 36.4479695431472 L-24.199074074074073 37.15270727580372 L-22.694444444444443 37.5898827236128 L-21.074074074074073 37.742385786802025 L-19.453703703703702 37.5898827236128 L-17.949074074074073 37.15270727580372 L-16.653342366757 36.4479695431472 L-15.657407407407407 35.53109137055837 L-15.039591315453384 34.46639405903365 L-14.824074074074073 33.31979695431472 L-15.039591315453384 32.173199849595775 L-15.657407407407407 31.10850253807106 L-16.653342366757 30.19162436548223 L-17.949074074074073 29.486886632825712 L-19.453703703703702 29.049711185016626 L-21.074074074074073 28.897208121827408 L-22.694444444444443 29.049711185016626 z M20.263888888888886 28.973459653422015 L19.453703703703702 29.049711185016626 L17.949074074074073 29.486886632825712 L16.653342366757 30.19162436548223 L15.657407407407407 31.10850253807106 L15.039591315453384 32.173199849595775 L14.824074074074073 33.31979695431472 L15.039591315453384 34.46639405903365 L15.657407407407407 35.53109137055837 L16.653342366757 36.4479695431472 L17.949074074074073 37.15270727580372 L19.453703703703702 37.5898827236128 L21.074074074074073 37.742385786802025 L22.694444444444443 37.5898827236128 L24.199074074074073 37.15270727580372 L25.494805781391147 36.4479695431472 L26.49074074074074 35.53109137055837 L27.108556832694763 34.46639405903365 L27.324074074074073 33.31979695431472 L27.108556832694763 32.173199849595775 L26.49074074074074 31.10850253807106 L25.494805781391147 30.19162436548223 L24.199074074074073 29.486886632825712 L22.694444444444443 29.049711185016626 L21.074074074074073 28.897208121827408 z"/>
<path fill="#bababa" stroke="#bababa" d="M42.15 54.53299492385786 L42.15 -44.53299492385786 L41.93260869565217 -45.573604060913695 L41.280434782608694 -46.523159898477154 L40.263207547169806 -47.301920105936865 L38.979268292682924 -47.827061088744955 L37.520370370370365 -48.05766420550683 L-36.779629629629625 -48.05766420550683 L-38.261111111111106 -47.980346218924886 L-39.65 -47.59932318104906 L-40.81666666666666 -46.93888324873095 L-41.65 -46.071286691679525 L-42.08975903614458 -45.06370558375634 L-42.08975903614458 55.06370558375634 L-41.65 56.071286691679525 L-40.81666666666666 56.938883248730946 L-39.65 57.59932318104906 L-38.261111111111106 57.980346218924886 L-36.779629629629625 58.05766420550683 L37.520370370370365 58.05766420550683 L38.979268292682924 57.827061088744955 L40.263207547169806 57.301920105936865 L41.280434782608694 56.52315989847715 L41.93260869565217 55.573604060913695 z M-19.453703703703702 -29.648695956590224 L-21.074074074074073 -29.49619289340101 L-22.694444444444443 -29.648695956590224 L-24.199074074074073 -30.085871404399317 L-25.494805781391147 -30.79060913705583 L-26.49074074074074 -31.707487309644666 L-27.108556832694763 -32.77218462116939 L-27.324074074074073 -33.918781725888316 L-27.108556832694763 -35.06537883060725 L-26.49074074074074 -36.130076142131976 L-25.494805781391147 -37.04695431472081 L-24.199074074074073 -37.751692047377325 L-22.694444444444443 -38.18886749518641 L-21.074074074074073 -38.34137055837562 L-19.453703703703702 -38.18886749518641 L-17.949074074074073 -37.751692047377325 L-16.653342366757 -37.04695431472081 L-15.657407407407407 -36.130076142131976 L-15.039591315453384 -35.06537883060725 L-14.824074074074073 -33.918781725888316 L-15.039591315453384 -32.77218462116939 L-15.657407407407407 -31.707487309644666 L-16.653342366757 -30.79060913705583 L-17.949074074074073 -30.085871404399317 z M14.824074074074073 43.918781725888316 L15.039591315453384 42.77218462116939 L15.657407407407407 41.70748730964466 L16.653342366757 40.79060913705583 L17.949074074074073 40.08587140439932 L19.453703703703702 39.648695956590224 L21.074074074074073 39.49619289340101 L22.694444444444443 39.648695956590224 L24.199074074074073 40.08587140439932 L25.494805781391147 40.79060913705583 L26.49074074074074 41.70748730964466 L27.108556832694763 42.77218462116939 L27.324074074074073 43.918781725888316 L27.108556832694763 45.06537883060725 L26.49074074074074 46.13007614213197 L25.494805781391147 47.0469543147208 L24.199074074074073 47.75169204737732 L22.694444444444443 48.18886749518641 L21.074074074074073 48.34137055837563 L19.453703703703702 48.18886749518641 L17.949074074074073 47.75169204737732 L16.653342366757 47.0469543147208 L15.657407407407407 46.13007614213197 L15.039591315453384 45.06537883060725 z M21.074074074074073 -29.49619289340101 L19.453703703703702 -29.648695956590224 L17.949074074074073 -30.085871404399317 L16.653342366757 -30.79060913705583 L15.657407407407407 -31.707487309644666 L15.039591315453384 -32.77218462116939 L14.824074074074073 -33.918781725888316 L15.039591315453384 -35.06537883060725 L15.657407407407407 -36.130076142131976 L16.653342366757 -37.04695431472081 L17.949074074074073 -37.751692047377325 L19.453703703703702 -38.18886749518641 L21.074074074074073 -38.34137055837562 L22.694444444444443 -38.18886749518641 L24.199074074074073 -37.751692047377325 L25.494805781391147 -37.04695431472081 L26.49074074074074 -36.130076142131976 L27.108556832694763 -35.06537883060725 L27.324074074074073 -33.918781725888316 L27.108556832694763 -32.77218462116939 L26.49074074074074 -31.707487309644666 L25.494805781391147 -30.79060913705583 L24.199074074074073 -30.085871404399317 L22.694444444444443 -29.648695956590224 z M-27.324074074074073 43.918781725888316 L-27.108556832694763 42.77218462116939 L-26.49074074074074 41.70748730964466 L-25.494805781391147 40.79060913705583 L-24.199074074074073 40.08587140439932 L-22.694444444444443 39.648695956590224 L-21.074074074074073 39.49619289340101 L-19.453703703703702 39.648695956590224 L-17.949074074074073 40.08587140439932 L-16.653342366757 40.79060913705583 L-15.657407407407407 41.70748730964466 L-15.039591315453384 42.77218462116939 L-14.824074074074073 43.918781725888316 L-15.039591315453384 45.06537883060725 L-15.657407407407407 46.13007614213197 L-16.653342366757 47.0469543147208 L-17.949074074074073 47.75169204737732 L-19.453703703703702 48.18886749518641 L-21.074074074074073 48.34137055837563 L-22.694444444444443 48.18886749518641 L-24.199074074074073 47.75169204737732 L-25.494805781391147 47.0469543147208 L-26.49074074074074 46.13007614213197 L-27.108556832694763 45.06537883060725 z"/>
</svg>