<?xml version="1.0" encoding="UTF-8"?>
<!-- Generated by jsxcad -->
<!DOCTYPE svg PUBLIC "-//W3C//DTD SVG 1.1 Tiny//EN" "http://www.w3.org/Graphics/SVG/1.1/DTD/svg11-tiny.dtd">
<svg baseProfile="tiny" height="120.27411167512697mm" width="84.3333333333334mm" viewBox="-42.150000000000034 -59.73773265651441 84.3333333333334 120.27411167512697" version="1.1" stroke="black" stroke-width=".1" fill="none" xmlns="http://www.w3.org/2000/svg">
<path fill="#bababa" stroke="#bababa" d="M19.4537037037037 35.72355446642161 L19.4537037037037 49.85553416185308 L21.074074074074073 50.0080372250423 L21.074074074074073 35.876057529610826 z"/>
<path fill="#bababa" stroke="#bababa" d="M22.15432098765432 35.77438882081802 L21.074074074074073 35.876057529610826 L21.074074074074073 50.0080372250423 L22.694444444444443 49.85553416185308 L22.694444444444443 35.72355446642161 z"/>
<path fill="#bababa" stroke="#bababa" d="M22.694444444444443 41.315362623256895 L21.074074074074073 41.16285956006768 L21.074074074074073 27.03087986463621 L22.694444444444443 27.183382927825427 z"/>
<path fill="#bababa" stroke="#bababa" d="M19.4537037037037 27.183382927825427 L21.074074074074073 27.03087986463621 L21.074074074074073 41.16285956006768 L19.4537037037037 41.315362623256895 z"/>
<path fill="#bababa" stroke="#bababa" d="M24.199074074074073 41.752538071065985 L22.694444444444443 41.315362623256895 L22.694444444444443 27.183382927825427 L24.199074074074073 27.620558375634516 z"/>
<path fill="#bababa" stroke="#bababa" d="M17.949074074074073 27.620558375634516 L19.4537037037037 27.183382927825427 L19.4537037037037 41.315362623256895 L17.949074074074073 41.752538071065985 z"/>
<path fill="#bababa" stroke="#bababa" d="M25.494805781391143 42.4572758037225 L24.19907407407407 41.752538071065985 L24.19907407407407 27.620558375634513 L25.49480578139114 28.325296108291028 z"/>
<path fill="#bababa" stroke="#bababa" d="M16.653342366757006 28.325296108291028 L17.949074074074076 27.620558375634513 L17.949074074074076 41.752538071065985 L16.653342366757 42.4572758037225 z"/>
<path fill="#bababa" stroke="#bababa" d="M26.490740740740737 43.374153976311334 L25.494805781391143 42.457275803722496 L25.494805781391143 28.32529610829103 L26.490740740740737 29.242174280879862 z"/>
<path fill="#bababa" stroke="#bababa" d="M15.657407407407408 29.242174280879862 L16.653342366757 28.32529610829103 L16.653342366757002 42.457275803722496 L15.657407407407408 43.374153976311334 z"/>
<path fill="#bababa" stroke="#bababa" d="M27.108556832694763 44.43885128783605 L26.490740740740737 43.37415397631133 L26.490740740740737 29.242174280879862 L27.108556832694763 30.306871592404583 z"/>
<path fill="#bababa" stroke="#bababa" d="M15.039591315453384 30.306871592404583 L15.657407407407407 29.242174280879862 L15.657407407407408 43.37415397631133 L15.039591315453384 44.43885128783605 z"/>
<path fill="#bababa" stroke="#bababa" d="M15.039591315453384 44.43885128783605 L14.824074074074073 45.58544839255499 L14.824074074074074 31.453468697123512 L15.039591315453384 30.306871592404583 z"/>
<path fill="#bababa" stroke="#bababa" d="M14.824074074074073 45.58544839255499 L15.039591315453382 46.732045497273916 L15.039591315453384 32.60006580184245 L14.824074074074073 31.453468697123512 z"/>
<path fill="#bababa" stroke="#bababa" d="M15.657407407407405 33.664763113367165 L15.039591315453382 32.60006580184244 L15.039591315453384 46.73204549727392 L15.657407407407405 47.79674280879864 z"/>
<path fill="#bababa" stroke="#bababa" d="M17.94907407407407 35.286379018612514 L16.653342366756995 34.581641285955996 L16.653342366757 48.71362098138747 L17.94907407407407 49.41835871404398 z"/>
<path fill="#bababa" stroke="#bababa" d="M24.199074074074076 49.41835871404398 L25.494805781391147 48.71362098138747 L25.49480578139115 34.581641285955996 L24.199074074074076 35.286379018612514 z"/>
<path fill="#bababa" stroke="#bababa" d="M22.694444444444443 49.85553416185308 L24.199074074074073 49.41835871404399 L24.199074074074073 35.286379018612514 L22.694444444444443 35.72355446642161 z"/>
<path fill="#bababa" stroke="#bababa" d="M27.108556832694763 32.60006580184244 L26.49074074074074 33.664763113367165 L26.49074074074074 47.79674280879864 L27.108556832694763 46.73204549727392 z"/>
<path fill="#bababa" stroke="#bababa" d="M27.324074074074073 45.58544839255499 L27.108556832694763 44.43885128783605 L27.108556832694763 30.306871592404583 L27.324074074074073 31.453468697123512 z"/>
<path fill="#bababa" stroke="#bababa" d="M16.653342366757 34.581641285956 L15.657407407407405 33.664763113367165 L15.657407407407405 47.79674280879864 L16.653342366757 48.71362098138747 z"/>
<path fill="#bababa" stroke="#bababa" d="M27.108556832694763 46.732045497273916 L27.324074074074073 45.58544839255499 L27.324074074074073 31.453468697123512 L27.108556832694763 32.60006580184245 z"/>
<path fill="#bababa" stroke="#bababa" d="M19.4537037037037 35.72355446642161 L17.949074074074073 35.28637901861252 L17.949074074074073 49.41835871404399 L19.4537037037037 49.85553416185308 z"/>
<path fill="#bababa" stroke="#bababa" d="M25.49480578139115 48.71362098138747 L26.49074074074074 47.79674280879864 L26.49074074074074 33.66476311336717 L25.49480578139115 34.581641285955996 z"/>
<path fill="#bababa" stroke="#bababa" d="M-21.074074074074073 35.876057529610826 L-21.074074074074073 50.0080372250423 L-19.4537037037037 49.85553416185308 L-19.4537037037037 35.72355446642161 z"/>
<path fill="#bababa" stroke="#bababa" d="M-19.4537037037037 41.315362623256895 L-21.074074074074073 41.16285956006768 L-21.074074074074073 27.03087986463621 L-19.4537037037037 27.183382927825427 z"/>
<path fill="#bababa" stroke="#bababa" d="M-22.694444444444443 27.183382927825427 L-21.074074074074073 27.03087986463621 L-21.074074074074073 41.16285956006768 L-22.694444444444443 41.315362623256895 z"/>
<path fill="#bababa" stroke="#bababa" d="M-17.949074074074073 41.752538071065985 L-19.4537037037037 41.315362623256895 L-19.4537037037037 27.183382927825427 L-17.949074074074073 27.620558375634516 z"/>
<path fill="#bababa" stroke="#bababa" d="M-22.694444444444443 41.315362623256895 L-24.199074074074073 41.752538071065985 L-24.199074074074073 27.620558375634516 L-22.694444444444443 27.183382927825427 z"/>
<path fill="#bababa" stroke="#bababa" d="M-16.653342366757 42.4572758037225 L-17.949074074074076 41.752538071065985 L-17.949074074074076 27.620558375634513 L-16.653342366757006 28.325296108291028 z"/>
<path fill="#bababa" stroke="#bababa" d="M-25.49480578139114 28.325296108291028 L-24.19907407407407 27.620558375634513 L-24.19907407407407 41.752538071065985 L-25.494805781391143 42.4572758037225 z"/>
<path fill="#bababa" stroke="#bababa" d="M-15.657407407407408 43.374153976311334 L-16.653342366757002 42.457275803722496 L-16.653342366757 28.32529610829103 L-15.657407407407408 29.242174280879862 z"/>
<path fill="#bababa" stroke="#bababa" d="M-26.490740740740737 29.242174280879862 L-25.494805781391143 28.32529610829103 L-25.494805781391143 42.457275803722496 L-26.490740740740737 43.374153976311334 z"/>
<path fill="#bababa" stroke="#bababa" d="M-15.039591315453384 44.43885128783605 L-15.657407407407408 43.37415397631133 L-15.657407407407407 29.242174280879862 L-15.039591315453384 30.306871592404583 z"/>
<path fill="#bababa" stroke="#bababa" d="M-15.657407407407407 33.66476311336717 L-16.653342366756995 34.581641285955996 L-16.653342366756995 48.71362098138747 L-15.657407407407407 47.79674280879864 z"/>
<path fill="#bababa" stroke="#bababa" d="M-27.108556832694763 32.60006580184245 L-27.324074074074073 31.453468697123512 L-27.324074074074073 45.58544839255499 L-27.108556832694763 46.732045497273916 z"/>
<path fill="#bababa" stroke="#bababa" d="M-15.039591315453382 32.60006580184244 L-15.657407407407405 33.664763113367165 L-15.657407407407405 47.79674280879864 L-15.039591315453384 46.73204549727392 z"/>
<path fill="#bababa" stroke="#bababa" d="M-14.824074074074073 31.453468697123512 L-15.039591315453384 32.60006580184245 L-15.039591315453382 46.732045497273916 L-14.824074074074073 45.58544839255499 z"/>
<path fill="#bababa" stroke="#bababa" d="M-27.108556832694763 46.73204549727392 L-26.49074074074074 47.79674280879864 L-26.49074074074074 33.664763113367165 L-27.108556832694763 32.60006580184244 z"/>
<path fill="#bababa" stroke="#bababa" d="M-27.2522349936143 31.071269662217205 L-27.108556832694763 30.306871592404583 L-27.108556832694763 44.43885128783605 L-27.324074074074073 45.58544839255498 L-27.324074074074073 31.453468697123515 z"/>
<path fill="#bababa" stroke="#bababa" d="M-17.94907407407407 49.41835871404398 L-16.653342366757 48.71362098138747 L-16.653342366756995 34.581641285955996 L-17.94907407407407 35.286379018612514 z"/>
<path fill="#bababa" stroke="#bababa" d="M-25.494805781391147 48.71362098138747 L-24.199074074074076 49.41835871404398 L-24.199074074074076 35.286379018612514 L-25.49480578139115 34.581641285955996 z"/>
<path fill="#bababa" stroke="#bababa" d="M-27.108556832694763 30.306871592404583 L-26.490740740740737 29.242174280879862 L-26.490740740740737 43.37415397631133 L-27.10855683269476 44.43885128783605 z"/>
<path fill="#bababa" stroke="#bababa" d="M-19.4537037037037 49.85553416185308 L-17.949074074074073 49.41835871404399 L-17.949074074074073 35.28637901861252 L-19.4537037037037 35.72355446642161 z"/>
<path fill="#bababa" stroke="#bababa" d="M-25.49480578139115 34.581641285955996 L-26.49074074074074 33.66476311336717 L-26.49074074074074 47.79674280879864 L-25.49480578139115 48.71362098138747 z"/>
<path fill="#bababa" stroke="#bababa" d="M-14.824074074074073 45.58544839255499 L-15.039591315453384 44.43885128783605 L-15.039591315453384 30.306871592404583 L-14.824074074074074 31.453468697123512 z"/>
<path fill="#bababa" stroke="#bababa" d="M-24.199074074074073 49.41835871404399 L-22.694444444444443 49.85553416185308 L-22.694444444444443 35.72355446642161 L-24.199074074074073 35.286379018612514 z"/>
<path fill="#bababa" stroke="#bababa" d="M-21.07407407407407 35.876057529610826 L-22.694444444444443 35.72355446642161 L-22.694444444444443 49.85553416185308 L-21.07407407407407 50.0080372250423 z"/>
<path fill="#bababa" stroke="#bababa" d="M21.074074074074073 -41.96150592216582 L21.074074074074073 -27.82952622673435 L22.694444444444443 -27.98202928992357 L22.694444444444443 -42.11400898535504 z"/>
<path fill="#bababa" stroke="#bababa" d="M22.694444444444443 -36.52220082851976 L21.074074074074073 -36.67470389170898 L21.074074074074073 -50.80668358714044 L22.694444444444443 -50.654180523951226 z"/>
<path fill="#bababa" stroke="#bababa" d="M19.4537037037037 -50.654180523951226 L21.074074074074073 -50.80668358714045 L21.074074074074073 -36.674703891708965 L19.4537037037037 -36.52220082851975 z"/>
<path fill="#bababa" stroke="#bababa" d="M24.199074074074073 -36.08502538071067 L22.694444444444443 -36.52220082851976 L22.694444444444443 -50.654180523951226 L24.199074074074073 -50.21700507614214 z"/>
<path fill="#bababa" stroke="#bababa" d="M19.4537037037037 -36.52220082851975 L17.94907407407407 -36.08502538071066 L17.94907407407407 -50.21700507614214 L19.4537037037037 -50.654180523951226 z"/>
<path fill="#bababa" stroke="#bababa" d="M25.49480578139116 -35.38028764805414 L24.19907407407409 -36.085025380710654 L24.199074074074083 -50.21700507614212 L25.49480578139115 -49.51226734348561 z"/>
<path fill="#bababa" stroke="#bababa" d="M16.653342366756995 -49.51226734348561 L17.949074074074062 -50.21700507614212 L17.949074074074055 -36.085025380710654 L16.653342366756984 -35.38028764805414 z"/>
<path fill="#bababa" stroke="#bababa" d="M26.490740740740744 -34.463409475465305 L25.49480578139115 -35.38028764805414 L25.49480578139115 -49.51226734348561 L26.490740740740744 -48.59538917089678 z"/>
<path fill="#bababa" stroke="#bababa" d="M15.657407407407401 -48.59538917089678 L16.653342366756995 -49.51226734348561 L16.653342366756995 -35.38028764805414 L15.657407407407403 -34.463409475465305 z"/>
<path fill="#bababa" stroke="#bababa" d="M27.108556832694763 -33.39871216394059 L26.49074074074074 -34.463409475465305 L26.490740740740744 -48.59538917089678 L27.108556832694767 -47.530691859372055 z"/>
<path fill="#bababa" stroke="#bababa" d="M26.490740740740733 -44.172800338409466 L25.494805781391143 -43.255922165820635 L25.49480578139114 -29.12394247038917 L26.490740740740733 -30.040820642977994 z"/>
<path fill="#bababa" stroke="#bababa" d="M15.039591315453386 -45.237497649934184 L14.824074074074074 -46.38409475465312 L14.824074074074074 -32.25211505922165 L15.039591315453384 -31.105517954502723 z"/>
<path fill="#bababa" stroke="#bababa" d="M27.108556832694756 -45.237497649934184 L26.490740740740737 -44.172800338409466 L26.490740740740737 -30.040820642977998 L27.10855683269476 -31.10551795450272 z"/>
<path fill="#bababa" stroke="#bababa" d="M27.324074074074073 -46.38409475465312 L27.10855683269476 -45.237497649934184 L27.108556832694763 -31.105517954502723 L27.324074074074073 -32.25211505922165 z"/>
<path fill="#bababa" stroke="#bababa" d="M15.039591315453384 -31.10551795450272 L15.657407407407408 -30.040820642977998 L15.657407407407408 -44.172800338409466 L15.03959131545339 -45.237497649934184 z"/>
<path fill="#bababa" stroke="#bababa" d="M14.895913154533844 -46.766293789559434 L15.039591315453382 -47.530691859372055 L15.039591315453382 -33.39871216394059 L14.824074074074073 -32.25211505922165 L14.824074074074073 -46.38409475465312 z"/>
<path fill="#bababa" stroke="#bababa" d="M24.19907407407407 -28.41920473773265 L25.494805781391136 -29.123942470389164 L25.494805781391136 -43.25592216582064 L24.19907407407407 -42.551184433164124 z"/>
<path fill="#bababa" stroke="#bababa" d="M16.65334236675701 -29.123942470389164 L17.949074074074076 -28.41920473773265 L17.949074074074076 -42.551184433164124 L16.653342366757006 -43.25592216582064 z"/>
<path fill="#bababa" stroke="#bababa" d="M15.039591315453382 -47.53069185937206 L15.657407407407405 -48.59538917089678 L15.657407407407403 -34.463409475465305 L15.039591315453379 -33.39871216394058 z"/>
<path fill="#bababa" stroke="#bababa" d="M22.694444444444443 -27.982029289923567 L24.199074074074073 -28.419204737732656 L24.199074074074073 -42.55118443316413 L22.694444444444443 -42.114008985355035 z"/>
<path fill="#bababa" stroke="#bababa" d="M16.653342366757002 -43.255922165820635 L15.657407407407414 -44.172800338409466 L15.65740740740741 -30.040820642977994 L16.653342366757006 -29.12394247038917 z"/>
<path fill="#bababa" stroke="#bababa" d="M27.324074074074073 -32.25211505922165 L27.108556832694763 -33.39871216394059 L27.108556832694763 -47.53069185937205 L27.324074074074073 -46.38409475465312 z"/>
<path fill="#bababa" stroke="#bababa" d="M17.949074074074073 -28.419204737732656 L19.4537037037037 -27.982029289923567 L19.4537037037037 -42.11400898535504 L17.949074074074073 -42.55118443316413 z"/>
<path fill="#bababa" stroke="#bababa" d="M21.07407407407407 -41.96150592216582 L19.453703703703702 -42.114008985355035 L19.453703703703702 -27.98202928992357 L21.07407407407407 -27.82952622673435 z"/>
<path fill="#bababa" stroke="#bababa" d="M-21.074074074074073 -41.96150592216583 L-21.074074074074073 -27.829526226734348 L-19.4537037037037 -27.982029289923567 L-19.4537037037037 -42.11400898535504 z"/>
<path fill="#bababa" stroke="#bababa" d="M-19.4537037037037 -36.52220082851975 L-21.074074074074073 -36.674703891708965 L-21.074074074074073 -50.80668358714045 L-19.4537037037037 -50.654180523951226 z"/>
<path fill="#bababa" stroke="#bababa" d="M-22.694444444444443 -50.654180523951226 L-21.074074074074073 -50.80668358714044 L-21.074074074074073 -36.67470389170898 L-22.694444444444443 -36.52220082851976 z"/>
<path fill="#bababa" stroke="#bababa" d="M-17.949074074074073 -36.085025380710654 L-19.4537037037037 -36.52220082851974 L-19.4537037037037 -50.654180523951226 L-17.949074074074073 -50.21700507614214 z"/>
<path fill="#bababa" stroke="#bababa" d="M-22.694444444444443 -36.52220082851976 L-24.199074074074073 -36.08502538071067 L-24.199074074074073 -50.21700507614214 L-22.694444444444443 -50.654180523951226 z"/>
<path fill="#bababa" stroke="#bababa" d="M-16.653342366756984 -35.38028764805414 L-17.949074074074055 -36.085025380710654 L-17.949074074074062 -50.21700507614212 L-16.653342366756995 -49.51226734348561 z"/>
<path fill="#bababa" stroke="#bababa" d="M-25.49480578139115 -49.51226734348561 L-24.199074074074083 -50.21700507614212 L-24.19907407407409 -36.085025380710654 L-25.49480578139116 -35.38028764805414 z"/>
<path fill="#bababa" stroke="#bababa" d="M-15.657407407407403 -34.463409475465305 L-16.653342366756995 -35.38028764805414 L-16.653342366756995 -49.51226734348561 L-15.657407407407401 -48.59538917089678 z"/>
<path fill="#bababa" stroke="#bababa" d="M-26.490740740740744 -48.59538917089678 L-25.49480578139115 -49.51226734348561 L-25.49480578139115 -35.38028764805414 L-26.490740740740744 -34.463409475465305 z"/>
<path fill="#bababa" stroke="#bababa" d="M-15.03959131545338 -33.39871216394059 L-15.657407407407407 -34.463409475465305 L-15.657407407407403 -48.59538917089678 L-15.03959131545338 -47.530691859372055 z"/>
<path fill="#bababa" stroke="#bababa" d="M-15.657407407407414 -44.172800338409466 L-16.653342366757002 -43.255922165820635 L-16.653342366757006 -29.12394247038917 L-15.65740740740741 -30.040820642977994 z"/>
<path fill="#bababa" stroke="#bababa" d="M-27.10855683269476 -45.237497649934184 L-27.324074074074073 -46.38409475465312 L-27.324074074074073 -32.25211505922165 L-27.108556832694763 -31.105517954502723 z"/>
<path fill="#bababa" stroke="#bababa" d="M-15.03959131545339 -45.237497649934184 L-15.657407407407408 -44.172800338409466 L-15.657407407407408 -30.040820642977998 L-15.039591315453384 -31.10551795450272 z"/>
<path fill="#bababa" stroke="#bababa" d="M-14.824074074074074 -46.38409475465312 L-15.039591315453386 -45.237497649934184 L-15.039591315453384 -31.105517954502723 L-14.824074074074074 -32.25211505922165 z"/>
<path fill="#bababa" stroke="#bababa" d="M-27.10855683269476 -31.10551795450272 L-26.490740740740737 -30.040820642977998 L-26.490740740740737 -44.172800338409466 L-27.108556832694756 -45.237497649934184 z"/>
<path fill="#bababa" stroke="#bababa" d="M-27.2522349936143 -46.766293789559434 L-27.108556832694763 -47.530691859372055 L-27.108556832694763 -33.39871216394059 L-27.324074074074073 -32.25211505922165 L-27.324074074074073 -46.38409475465312 z"/>
<path fill="#bababa" stroke="#bababa" d="M-17.949074074074076 -28.41920473773265 L-16.65334236675701 -29.123942470389164 L-16.653342366757006 -43.25592216582064 L-17.949074074074076 -42.551184433164124 z"/>
<path fill="#bababa" stroke="#bababa" d="M-25.494805781391136 -29.123942470389164 L-24.19907407407407 -28.41920473773265 L-24.19907407407407 -42.551184433164124 L-25.494805781391136 -43.25592216582064 z"/>
<path fill="#bababa" stroke="#bababa" d="M-27.108556832694763 -47.53069185937206 L-26.49074074074074 -48.59538917089678 L-26.490740740740744 -34.463409475465305 L-27.108556832694767 -33.39871216394058 z"/>
<path fill="#bababa" stroke="#bababa" d="M-19.4537037037037 -27.982029289923567 L-17.949074074074073 -28.419204737732656 L-17.949074074074073 -42.55118443316413 L-19.4537037037037 -42.11400898535504 z"/>
<path fill="#bababa" stroke="#bababa" d="M-25.494805781391143 -43.255922165820635 L-26.490740740740733 -44.172800338409466 L-26.490740740740733 -30.040820642977994 L-25.49480578139114 -29.12394247038917 z"/>
<path fill="#bababa" stroke="#bababa" d="M-14.824074074074073 -32.25211505922165 L-15.039591315453382 -33.39871216394059 L-15.039591315453382 -47.53069185937205 L-14.824074074074073 -46.38409475465312 z"/>
<path fill="#bababa" stroke="#bababa" d="M-24.199074074074073 -28.419204737732656 L-22.694444444444443 -27.982029289923567 L-22.694444444444443 -42.114008985355035 L-24.199074074074073 -42.55118443316413 z"/>
<path fill="#bababa" stroke="#bababa" d="M-21.07407407407407 -41.96150592216583 L-22.694444444444443 -42.11400898535504 L-22.694444444444443 -27.982029289923567 L-21.07407407407407 -27.829526226734348 z"/>
<path fill="#bababa" stroke="#bababa" d="M42.18333333333333 -46.404399323181046 L42.18333333333333 59.73773265651438 L42.18333333333333 45.605752961082906 L42.18333333333333 -60.536379018612514 z"/>
<path fill="#bababa" stroke="#bababa" d="M-42.15 -46.404399323181046 L42.18333333333333 -46.404399323181046 L42.18333333333333 -60.53637901861252 L-42.15 -60.53637901861252 z"/>
<path fill="#bababa" stroke="#bababa" d="M-42.15 59.73773265651438 L-42.15 -46.404399323181046 L-42.15 -60.536379018612514 L-42.15 45.605752961082906 z"/>
<path fill="#bababa" stroke="#bababa" d="M42.18333333333333 59.73773265651438 L-42.15 59.73773265651438 L-42.15 45.60575296108291 L42.18333333333333 45.60575296108291 z"/>
<path fill="#bababa" stroke="#bababa" d="M42.18333333333333 45.605752961082906 L-42.15 45.605752961082906 L-42.15 -60.53637901861251 L42.18333333333333 -60.53637901861251 z M-19.453703703703702 -42.11400898535503 L-17.949074074074073 -42.55118443316412 L-16.653342366757 -43.255922165820635 L-15.657407407407407 -44.172800338409466 L-15.039591315453384 -45.23749764993419 L-14.824074074074073 -46.38409475465312 L-15.039591315453384 -47.530691859372055 L-15.657407407407407 -48.59538917089678 L-16.653342366757 -49.51226734348561 L-17.949074074074073 -50.21700507614212 L-19.453703703703702 -50.65418052395122 L-21.074074074074073 -50.806683587140434 L-22.694444444444443 -50.65418052395122 L-24.199074074074073 -50.21700507614212 L-25.494805781391147 -49.51226734348561 L-26.49074074074074 -48.59538917089678 L-27.108556832694763 -47.530691859372055 L-27.324074074074073 -46.38409475465312 L-27.108556832694763 -45.23749764993419 L-26.49074074074074 -44.172800338409466 L-25.494805781391147 -43.255922165820635 L-24.199074074074073 -42.55118443316412 L-22.694444444444443 -42.11400898535503 L-21.074074074074073 -41.96150592216582 z M14.824074074074073 -46.38409475465312 L15.039591315453384 -45.23749764993419 L15.657407407407407 -44.172800338409466 L16.653342366757 -43.255922165820635 L17.949074074074073 -42.55118443316412 L19.453703703703702 -42.11400898535503 L21.074074074074073 -41.96150592216582 L22.694444444444443 -42.11400898535503 L24.199074074074073 -42.55118443316412 L25.494805781391147 -43.255922165820635 L26.49074074074074 -44.172800338409466 L27.108556832694763 -45.23749764993419 L27.324074074074073 -46.38409475465312 L27.108556832694763 -47.530691859372055 L26.49074074074074 -48.59538917089678 L25.494805781391147 -49.51226734348561 L24.199074074074073 -50.21700507614212 L22.694444444444443 -50.65418052395122 L21.074074074074073 -50.806683587140434 L19.453703703703702 -50.65418052395122 L17.949074074074073 -50.21700507614212 L16.653342366757 -49.51226734348561 L15.657407407407407 -48.59538917089678 L15.039591315453384 -47.530691859372055 z M-19.993827160493826 35.77438882081801 L-19.453703703703702 35.723554466421604 L-17.949074074074073 35.286379018612514 L-16.653342366757 34.581641285956 L-15.657407407407407 33.664763113367165 L-15.039591315453384 32.60006580184244 L-14.824074074074073 31.453468697123512 L-15.039591315453384 30.30687159240458 L-15.657407407407407 29.24217428087986 L-16.653342366757 28.32529610829103 L-17.949074074074073 27.62055837563451 L-19.453703703703702 27.183382927825424 L-21.074074074074073 27.0308798646362 L-22.694444444444443 27.183382927825424 L-24.199074074074073 27.62055837563451 L-25.494805781391147 28.32529610829103 L-26.49074074074074 29.24217428087986 L-27.108556832694763 30.30687159240458 L-27.324074074074073 31.453468697123512 L-27.108556832694763 32.60006580184244 L-26.49074074074074 33.664763113367165 L-25.494805781391147 34.581641285956 L-24.199074074074073 35.286379018612514 L-22.694444444444443 35.723554466421604 L-21.074074074074073 35.876057529610826 z M23.697530864197528 35.432104167882216 L24.199074074074073 35.286379018612514 L25.494805781391147 34.581641285956 L26.49074074074074 33.664763113367165 L27.108556832694763 32.60006580184244 L27.324074074074073 31.453468697123512 L27.108556832694763 30.30687159240458 L26.49074074074074 29.24217428087986 L25.494805781391147 28.32529610829103 L24.199074074074073 27.62055837563451 L22.694444444444443 27.183382927825424 L21.074074074074073 27.0308798646362 L19.453703703703702 27.183382927825424 L17.949074074074073 27.62055837563451 L16.653342366757 28.32529610829103 L15.657407407407407 29.24217428087986 L15.039591315453384 30.30687159240458 L14.824074074074073 31.453468697123512 L15.039591315453384 32.60006580184244 L15.657407407407407 33.664763113367165 L16.653342366757 34.581641285956 L17.949074074074073 35.286379018612514 L19.453703703703702 35.723554466421604 L21.074074074074073 35.876057529610826 L22.694444444444443 35.723554466421604 z"/>
<path fill="#bababa" stroke="#bababa" d="M-42.15 -46.40439932318104 L-42.15 59.73773265651437 L42.18333333333333 59.73773265651437 L42.18333333333333 -46.40439932318104 z M-21.074074074074073 -27.82952622673434 L-22.694444444444443 -27.982029289923563 L-24.199074074074073 -28.419204737732652 L-25.494805781391147 -29.123942470389164 L-26.49074074074074 -30.040820642977998 L-27.108556832694763 -31.105517954502723 L-27.324074074074073 -32.25211505922165 L-27.108556832694763 -33.39871216394059 L-26.49074074074074 -34.463409475465305 L-25.494805781391147 -35.38028764805414 L-24.199074074074073 -36.085025380710654 L-22.694444444444443 -36.52220082851974 L-21.074074074074073 -36.67470389170896 L-19.453703703703702 -36.52220082851974 L-17.949074074074073 -36.085025380710654 L-16.653342366757 -35.38028764805414 L-15.657407407407407 -34.463409475465305 L-15.039591315453384 -33.39871216394059 L-14.824074074074073 -32.25211505922165 L-15.039591315453384 -31.105517954502723 L-15.657407407407407 -30.040820642977998 L-16.653342366757 -29.123942470389164 L-17.949074074074073 -28.419204737732652 L-19.453703703703702 -27.982029289923563 z M22.694444444444443 -27.982029289923563 L21.074074074074073 -27.82952622673434 L19.453703703703702 -27.982029289923563 L17.949074074074073 -28.419204737732652 L16.653342366757 -29.123942470389164 L15.657407407407407 -30.040820642977998 L15.039591315453384 -31.105517954502723 L14.824074074074073 -32.25211505922165 L15.039591315453384 -33.39871216394059 L15.657407407407407 -34.463409475465305 L16.653342366757 -35.38028764805414 L17.949074074074073 -36.085025380710654 L19.453703703703702 -36.52220082851974 L21.074074074074073 -36.67470389170896 L22.694444444444443 -36.52220082851974 L24.199074074074073 -36.085025380710654 L25.494805781391147 -35.38028764805414 L26.49074074074074 -34.463409475465305 L27.108556832694763 -33.39871216394059 L27.324074074074073 -32.25211505922165 L27.108556832694763 -31.105517954502723 L26.49074074074074 -30.040820642977998 L25.494805781391147 -29.123942470389164 L24.199074074074073 -28.419204737732652 z M-19.453703703703702 49.85553416185308 L-21.074074074074073 50.008037225042294 L-22.694444444444443 49.85553416185308 L-24.199074074074073 49.41835871404399 L-25.494805781391147 48.71362098138747 L-26.49074074074074 47.79674280879864 L-27.108556832694763 46.732045497273916 L-27.324074074074073 45.58544839255499 L-27.108556832694763 44.43885128783606 L-26.49074074074074 43.374153976311334 L-25.494805781391147 42.457275803722496 L-24.199074074074073 41.752538071065985 L-22.694444444444443 41.315362623256895 L-21.074074074074073 41.16285956006767 L-19.453703703703702 41.315362623256895 L-17.949074074074073 41.752538071065985 L-16.653342366757 42.457275803722496 L-15.657407407407407 43.374153976311334 L-15.039591315453384 44.43885128783606 L-14.824074074074073 45.58544839255499 L-15.039591315453384 46.732045497273916 L-15.657407407407407 47.79674280879864 L-16.653342366757 48.71362098138747 L-17.949074074074073 49.41835871404399 z M14.824074074074073 45.58544839255499 L15.039591315453384 44.43885128783606 L15.657407407407407 43.374153976311334 L16.653342366757 42.457275803722496 L17.949074074074073 41.752538071065985 L19.453703703703702 41.315362623256895 L21.074074074074073 41.16285956006767 L22.694444444444443 41.315362623256895 L24.199074074074073 41.752538071065985 L25.494805781391147 42.457275803722496 L26.49074074074074 43.374153976311334 L27.108556832694763 44.43885128783606 L27.324074074074073 45.58544839255499 L27.108556832694763 46.732045497273916 L26.49074074074074 47.79674280879864 L25.494805781391147 48.71362098138747 L24.199074074074073 49.41835871404399 L22.694444444444443 49.85553416185308 L21.074074074074073 50.008037225042294 L19.453703703703702 49.85553416185308 L17.949074074074073 49.41835871404399 L16.653342366757 48.71362098138747 L15.657407407407407 47.79674280879864 L15.039591315453384 46.732045497273916 z"/>
</svg>