<?xml version="1.0" encoding="UTF-8"?>
<!-- Generated by jsxcad -->
<!DOCTYPE svg PUBLIC "-//W3C//DTD SVG 1.1 Tiny//EN" "http://www.w3.org/Graphics/SVG/1.1/DTD/svg11-tiny.dtd">
<svg baseProfile="tiny" height="33.22395785263808mm" width="84.23975903614463mm" viewBox="-42.089759036144606 -16.472215812951863 84.23975903614463 33.22395785263808" version="1.1" stroke="black" stroke-width=".1" fill="none" xmlns="http://www.w3.org/2000/svg">
<path fill="#bababa" stroke="#bababa" d="M26.775828460038984 -0.39828915209625854 L25.817317317317315 0.534161545996972 L25.817317317317315 5.480354439397987 L26.775828460038984 4.547903741304756 z"/>
<path fill="#bababa" stroke="#bababa" d="M25.817317317317315 0.5341615459969723 L24.55621693121693 1.2679621404399322 L24.55621693121693 6.214155033840946 L25.817317317317315 5.480354439397987 z"/>
<path fill="#bababa" stroke="#bababa" d="M24.556216931216927 1.267962140439934 L23.085978835978832 1.7622673434856182 L23.085978835978832 6.708460236886633 L24.556216931216927 6.214155033840949 z"/>
<path fill="#bababa" stroke="#bababa" d="M23.085978835978835 1.7622673434856173 L21.48032407407407 1.9729844803607022 L21.48032407407407 6.919177373761717 L23.085978835978835 6.708460236886633 z"/>
<path fill="#bababa" stroke="#bababa" d="M19.85532407407407 1.9014570407971418 L19.85532407407407 6.847649934198156 L21.480324074074073 6.919177373761716 L21.480324074074073 1.972984480360702 z"/>
<path fill="#bababa" stroke="#bababa" d="M18.31157407407407 1.5485859318346615 L18.31157407407407 6.4947788252356755 L19.855324074074073 6.847649934198156 L19.855324074074073 1.9014570407971412 z"/>
<path fill="#bababa" stroke="#bababa" d="M15.812169312169312 0.09272419627749581 L15.812169312169312 5.0389170896785105 L16.925137903861305 5.881513173797437 L16.925137903861305 0.9353202803964225 z"/>
<path fill="#bababa" stroke="#bababa" d="M24.55621693121693 -6.493681260575295 L25.81731731731732 -5.759880666132336 L25.817317317317315 -0.8136877727313198 L24.55621693121693 -1.5474883671742805 z"/>
<path fill="#bababa" stroke="#bababa" d="M27.364396654719233 -3.752183362051568 L27.574074074074073 -2.6128595600676814 L27.574074074074073 2.333333333333333 L27.364396654719233 1.1940095313494465 z"/>
<path fill="#bababa" stroke="#bababa" d="M23.085978835978832 -2.0417935702199688 L21.480324074074073 -2.252510707095053 L21.480324074074073 -7.198703600496068 L23.085978835978832 -6.987986463620984 z"/>
<path fill="#bababa" stroke="#bababa" d="M18.31157407407407 -6.7743050519700265 L19.855324074074073 -7.127176160932506 L19.855324074074073 -2.180983267531492 L18.31157407407407 -1.8281121585690123 z"/>
<path fill="#bababa" stroke="#bababa" d="M24.556216931216927 -1.5474883671742834 L23.085978835978832 -2.0417935702199683 L23.085978835978832 -6.987986463620983 L24.556216931216927 -6.493681260575298 z"/>
<path fill="#bababa" stroke="#bababa" d="M16.71969552282297 -6.005504961314767 L16.925137903861305 -6.161039400531785 L16.925137903861305 -1.2148465071307704 L15.812169312169312 -0.3722504230118445 L15.81216931216931 -5.318443316412858 z"/>
<path fill="#bababa" stroke="#bababa" d="M16.925137903861305 -6.161039400531785 L18.31157407407407 -6.774305051970026 L18.31157407407407 -1.8281121585690108 L16.925137903861305 -1.2148465071307708 z"/>
<path fill="#bababa" stroke="#bababa" d="M26.775828460038984 -4.8274299680391035 L27.364396654719233 -3.7521833620515683 L27.364396654719233 1.1940095313494463 L26.775828460038984 0.11876292536191008 z"/>
<path fill="#bababa" stroke="#bababa" d="M21.480324074074073 -2.252510707095054 L19.85532407407407 -2.1809832675314937 L19.85532407407407 -7.127176160932506 L21.480324074074073 -7.198703600496066 z"/>
<path fill="#bababa" stroke="#bababa" d="M26.775828460038987 0.11876292536191028 L25.81731731731732 -0.8136877727313205 L25.817317317317315 -5.759880666132335 L26.775828460038984 -4.827429968039104 z"/>
<path fill="#bababa" stroke="#bababa" d="M15.027562446167096 0.6387835069908273 L15.027562446167096 -4.307409386410187 L15.812169312169312 -5.318443316412858 L15.81216931216931 -0.37225042301184436 z"/>
<path fill="#bababa" stroke="#bababa" d="M14.631596197967879 -3.1877961082910318 L15.027562446167096 -4.307409386410187 L15.027562446167096 0.6387835069908272 L14.631596197967879 1.7583967851099829 z"/>
<path fill="#bababa" stroke="#bababa" d="M14.631596197967879 -2.0379230118443314 L14.631596197967879 -3.1877961082910318 L14.631596197967879 1.7583967851099829 L14.631596197967879 2.9082698815566834 z"/>
<path fill="#bababa" stroke="#bababa" d="M15.027562446167096 4.027883159675839 L15.812169312169312 5.0389170896785105 L15.812169312169312 0.09272419627749584 L15.027562446167096 -0.9183097337251758 z"/>
<path fill="#bababa" stroke="#bababa" d="M16.925137903861305 0.9353202803964213 L16.925137903861305 5.881513173797434 L18.31157407407407 6.494778825235675 L18.31157407407407 1.548585931834661 z"/>
<path fill="#bababa" stroke="#bababa" d="M27.364396654719233 -1.4735357580837947 L27.364396654719233 3.4726571353172195 L27.574074074074073 2.333333333333333 L27.574074074074073 -2.6128595600676814 z"/>
<path fill="#bababa" stroke="#bababa" d="M15.027562446167096 -0.9183097337251758 L14.631596197967879 -2.0379230118443314 L14.631596197967879 2.908269881556683 L15.027562446167096 4.027883159675839 z"/>
<path fill="#bababa" stroke="#bababa" d="M-20.66782407407407 1.972984480360702 L-20.66782407407407 6.919177373761716 L-19.06216931216931 6.708460236886632 L-19.06216931216931 1.7622673434856173 z"/>
<path fill="#bababa" stroke="#bababa" d="M-22.292824074074073 6.847649934198156 L-20.667824074074073 6.919177373761716 L-20.667824074074073 1.972984480360702 L-22.292824074074073 1.901457040797142 z"/>
<path fill="#bababa" stroke="#bababa" d="M-22.292824074074073 -7.127176160932507 L-20.667824074074073 -7.198703600496066 L-20.667824074074073 -2.2525107070950523 L-22.292824074074073 -2.1809832675314924 z"/>
<path fill="#bababa" stroke="#bababa" d="M-19.062169312169306 -2.0417935702199657 L-20.66782407407407 -2.2525107070950505 L-20.66782407407407 -7.198703600496066 L-19.062169312169306 -6.987986463620982 z"/>
<path fill="#bababa" stroke="#bababa" d="M-23.83657407407407 -6.774305051970027 L-22.292824074074073 -7.127176160932507 L-22.292824074074073 -2.180983267531493 L-23.83657407407407 -1.8281121585690139 z"/>
<path fill="#bababa" stroke="#bababa" d="M-17.591931216931215 -1.547488367174282 L-19.06216931216931 -2.0417935702199674 L-19.06216931216931 -6.987986463620982 L-17.591931216931215 -6.493681260575296 z"/>
<path fill="#bababa" stroke="#bababa" d="M-23.836574074074072 -1.8281121585690168 L-25.223010244286836 -1.2148465071307775 L-25.223010244286836 -6.161039400531788 L-23.836574074074072 -6.774305051970027 z"/>
<path fill="#bababa" stroke="#bababa" d="M-16.330830830830827 -0.8136877727313198 L-17.591931216931215 -1.5474883671742803 L-17.591931216931215 -6.493681260575296 L-16.330830830830827 -5.759880666132335 z"/>
<path fill="#bababa" stroke="#bababa" d="M-25.22301024428684 -1.2148465071307708 L-26.335978835978835 -0.3722504230118444 L-26.335978835978835 -5.318443316412858 L-25.22301024428684 -6.161039400531785 z"/>
<path fill="#bababa" stroke="#bababa" d="M-15.37231968810916 0.11876292536190981 L-16.330830830830827 -0.813687772731321 L-16.330830830830827 -5.759880666132335 L-15.37231968810916 -4.8274299680391035 z"/>
<path fill="#bababa" stroke="#bababa" d="M-27.12058570198105 -4.307409386410187 L-26.335978835978835 -5.318443316412859 L-26.335978835978835 -0.37225042301184413 L-27.12058570198105 0.6387835069908273 z"/>
<path fill="#bababa" stroke="#bababa" d="M-14.78375149342891 1.1940095313494463 L-15.37231968810916 0.11876292536191008 L-15.37231968810916 -4.8274299680391035 L-14.783751493428912 -3.7521833620515683 z"/>
<path fill="#bababa" stroke="#bababa" d="M-14.574074074074073 2.333333333333333 L-14.783751493428912 1.1940095313494465 L-14.783751493428912 -3.752183362051568 L-14.574074074074073 -2.6128595600676814 z"/>
<path fill="#bababa" stroke="#bababa" d="M-27.51655195018027 2.9082698815566834 L-27.12058570198105 4.027883159675839 L-27.12058570198105 -0.9183097337251758 L-27.51655195018027 -2.037923011844331 z"/>
<path fill="#bababa" stroke="#bababa" d="M-16.33083083083083 5.480354439397987 L-15.372319688109162 4.547903741304756 L-15.372319688109162 -0.39828915209625876 L-16.33083083083083 0.5341615459969721 z"/>
<path fill="#bababa" stroke="#bababa" d="M-27.51655195018027 1.7583967851099829 L-27.51655195018027 2.9082698815566834 L-27.51655195018027 -2.0379230118443314 L-27.51655195018027 -3.1877961082910318 z"/>
<path fill="#bababa" stroke="#bababa" d="M-25.223010244286836 5.881513173797438 L-23.836574074074072 6.494778825235678 L-23.836574074074072 1.5485859318346638 L-25.223010244286836 0.9353202803964239 z"/>
<path fill="#bababa" stroke="#bababa" d="M-17.591931216931215 1.2679621404399317 L-19.06216931216931 1.7622673434856169 L-19.06216931216931 6.708460236886631 L-17.591931216931215 6.214155033840946 z"/>
<path fill="#bababa" stroke="#bababa" d="M-27.51655195018027 -3.1877961082910318 L-27.12058570198105 -4.307409386410187 L-27.12058570198105 0.6387835069908272 L-27.51655195018027 1.7583967851099829 z"/>
<path fill="#bababa" stroke="#bababa" d="M-14.783751493428912 -1.4735357580837949 L-15.372319688109162 -0.39828915209625865 L-15.372319688109162 4.547903741304755 L-14.783751493428912 3.4726571353172195 z"/>
<path fill="#bababa" stroke="#bababa" d="M-25.223010244286836 0.9353202803964225 L-26.335978835978835 0.09272419627749581 L-26.335978835978835 5.0389170896785105 L-25.223010244286836 5.881513173797437 z"/>
<path fill="#bababa" stroke="#bababa" d="M-27.12058570198105 4.027883159675839 L-26.335978835978835 5.0389170896785105 L-26.335978835978835 0.09272419627749576 L-27.12058570198105 -0.9183097337251759 z"/>
<path fill="#bababa" stroke="#bababa" d="M-17.591931216931215 6.214155033840946 L-16.33083083083083 5.480354439397987 L-16.33083083083083 0.5341615459969723 L-17.591931216931215 1.2679621404399322 z"/>
<path fill="#bababa" stroke="#bababa" d="M-14.783751493428912 3.4726571353172195 L-14.574074074074073 2.333333333333333 L-14.574074074074073 -2.6128595600676814 L-14.783751493428912 -1.473535758083795 z"/>
<path fill="#bababa" stroke="#bababa" d="M-23.83657407407407 6.494778825235678 L-22.292824074074073 6.847649934198157 L-22.292824074074073 1.9014570407971425 L-23.83657407407407 1.5485859318346633 z"/>
<path fill="#bababa" stroke="#bababa" d="M37.520370370370365 16.472215812951852 L-36.779629629629625 16.472215812951852 L-36.779629629629625 11.526022919550837 L37.520370370370365 11.526022919550837 z"/>
<path fill="#bababa" stroke="#bababa" d="M38.97926829268292 16.241612696189975 L37.52037037037036 16.472215812951852 L37.52037037037036 11.52602291955084 L38.97926829268292 11.295419802788961 z"/>
<path fill="#bababa" stroke="#bababa" d="M40.2632075471698 15.716471713381887 L38.97926829268292 16.241612696189975 L38.97926829268292 11.295419802788963 L40.2632075471698 10.770278819980874 z"/>
<path fill="#bababa" stroke="#bababa" d="M41.280434782608694 14.937711505922165 L40.263207547169806 15.716471713381885 L40.263207547169806 10.77027881998087 L41.280434782608694 9.99151861252115 z"/>
<path fill="#bababa" stroke="#bababa" d="M41.93260869565217 13.988155668358711 L41.280434782608694 14.937711505922163 L41.280434782608694 9.991518612521148 L41.93260869565217 9.041962774957696 z"/>
<path fill="#bababa" stroke="#bababa" d="M42.14999999999999 12.947546531302875 L41.93260869565217 13.988155668358711 L41.93260869565217 9.041962774957696 L42.15 8.00135363790186 z"/>
<path fill="#bababa" stroke="#bababa" d="M42.15 -8.280879864636209 L42.15 12.947546531302876 L42.15 8.001353637901861 L42.15 -13.227072758037224 z"/>
<path fill="#bababa" stroke="#bababa" d="M41.93260869565217 -9.321489001692044 L42.15 -8.280879864636209 L42.15 -13.227072758037222 L41.93260869565217 -14.267681895093059 z"/>
<path fill="#bababa" stroke="#bababa" d="M41.280434782608694 -10.271044839255499 L41.93260869565217 -9.321489001692044 L41.93260869565217 -14.267681895093059 L41.280434782608694 -15.217237732656512 z"/>
<path fill="#bababa" stroke="#bababa" d="M40.263207547169806 -11.049805046715218 L41.280434782608694 -10.271044839255497 L41.280434782608694 -15.217237732656512 L40.263207547169806 -15.995997940116235 z"/>
<path fill="#bababa" stroke="#bababa" d="M38.97926829268292 -11.57494602952331 L40.2632075471698 -11.049805046715221 L40.2632075471698 -15.99599794011624 L38.97926829268292 -16.52113892292433 z"/>
<path fill="#bababa" stroke="#bababa" d="M37.52037037037036 -11.805549146285191 L38.97926829268292 -11.574946029523312 L38.97926829268292 -16.521138922924326 L37.52037037037036 -16.751742039686203 z"/>
<path fill="#bababa" stroke="#bababa" d="M-36.779629629629625 -11.805549146285186 L37.520370370370365 -11.805549146285186 L37.520370370370365 -16.751742039686203 L-36.779629629629625 -16.751742039686203 z"/>
<path fill="#bababa" stroke="#bababa" d="M-38.2611111111111 -11.728231159703244 L-36.77962962962962 -11.805549146285191 L-36.77962962962962 -16.751742039686203 L-38.2611111111111 -16.674424053104254 z"/>
<path fill="#bababa" stroke="#bababa" d="M-39.64999999999999 -11.347208121827414 L-38.2611111111111 -11.728231159703244 L-38.2611111111111 -16.674424053104257 L-39.64999999999999 -16.29340101522843 z"/>
<path fill="#bababa" stroke="#bababa" d="M-40.81666666666666 -10.686768189509303 L-39.65 -11.347208121827409 L-39.65 -16.293401015228422 L-40.81666666666666 -15.63296108291032 z"/>
<path fill="#bababa" stroke="#bababa" d="M-41.65 -9.819171632457879 L-40.81666666666666 -10.686768189509305 L-40.81666666666666 -15.632961082910318 L-41.65 -14.765364525858894 z"/>
<path fill="#bababa" stroke="#bababa" d="M-42.08975903614458 -8.811590524534685 L-41.65 -9.819171632457879 L-41.65 -14.765364525858894 L-42.08975903614458 -13.7577834179357 z"/>
<path fill="#bababa" stroke="#bababa" d="M-42.08975903614458 13.478257191201353 L-42.08975903614458 -8.811590524534687 L-42.08975903614458 -13.757783417935702 L-42.08975903614458 8.532064297800337 z"/>
<path fill="#bababa" stroke="#bababa" d="M-41.65 14.485838299124547 L-42.08975903614458 13.478257191201353 L-42.08975903614458 8.532064297800337 L-41.65 9.539645405723531 z"/>
<path fill="#bababa" stroke="#bababa" d="M-40.81666666666666 15.35343485617597 L-41.65 14.485838299124545 L-41.65 9.539645405723531 L-40.81666666666666 10.407241962774956 z"/>
<path fill="#bababa" stroke="#bababa" d="M-39.65 16.013874788494075 L-40.81666666666666 15.35343485617597 L-40.81666666666666 10.407241962774954 L-39.65 11.06768189509306 z"/>
<path fill="#bababa" stroke="#bababa" d="M-38.2611111111111 16.394897826369906 L-39.64999999999999 16.013874788494075 L-39.64999999999999 11.067681895093065 L-38.2611111111111 11.448704932968893 z"/>
<path fill="#bababa" stroke="#bababa" d="M-36.77962962962962 16.472215812951852 L-38.2611111111111 16.394897826369903 L-38.2611111111111 11.44870493296889 L-36.77962962962962 11.526022919550838 z"/>
<path fill="#bababa" stroke="#bababa" d="M26.91316103879771 -0.6491800268266836 L26.775828460038984 -0.39828915209625865 L26.775828460038984 4.547903741304755 L27.364396654719233 3.4726571353172195 L27.364396654719233 -1.4735357580837949 z"/>
<path fill="#bababa" stroke="#bababa" d="M42.15 -13.227072758037222 L42.15 8.00135363790186 L41.93260869565217 9.041962774957696 L41.280434782608694 9.991518612521148 L40.263207547169806 10.77027881998087 L38.979268292682924 11.29541980278896 L37.520370370370365 11.526022919550837 L-36.779629629629625 11.526022919550837 L-38.261111111111106 11.448704932968889 L-39.65 11.06768189509306 L-40.81666666666666 10.407241962774956 L-41.65 9.539645405723531 L-42.08975903614458 8.532064297800337 L-42.08975903614458 -13.7577834179357 L-41.65 -14.765364525858894 L-40.81666666666666 -15.632961082910317 L-39.65 -16.293401015228422 L-38.261111111111106 -16.67442405310425 L-36.779629629629625 -16.7517420396862 L37.520370370370365 -16.7517420396862 L38.979268292682924 -16.521138922924322 L40.263207547169806 -15.995997940116231 L41.280434782608694 -15.217237732656512 L41.93260869565217 -14.26768189509306 z M-20.293171296296293 1.9238171484231825 L-19.06216931216931 1.7622673434856173 L-17.591931216931215 1.2679621404399322 L-16.33083083083083 0.534161545996972 L-15.372319688109162 -0.39828915209625865 L-14.783751493428912 -1.4735357580837949 L-14.574074074074073 -2.6128595600676814 L-14.783751493428912 -3.7521833620515674 L-15.372319688109162 -4.827429968039104 L-16.33083083083083 -5.759880666132336 L-17.591931216931215 -6.493681260575295 L-19.06216931216931 -6.98798646362098 L-20.667824074074073 -7.198703600496065 L-22.292824074074073 -7.127176160932505 L-23.836574074074072 -6.774305051970026 L-25.22301024428684 -6.161039400531785 L-26.335978835978835 -5.318443316412859 L-27.12058570198105 -4.307409386410187 L-27.51655195018027 -3.1877961082910313 L-27.51655195018027 -2.037923011844331 L-27.12058570198105 -0.9183097337251757 L-26.335978835978835 0.09272419627749576 L-25.22301024428684 0.9353202803964223 L-23.836574074074072 1.5485859318346624 L-22.292824074074073 1.901457040797142 L-20.667824074074073 1.972984480360702 z M15.629094376768794 -5.082535399412235 L15.027562446167096 -4.307409386410187 L14.631596197967879 -3.1877961082910313 L14.631596197967879 -2.037923011844331 L15.027562446167096 -0.9183097337251757 L15.812169312169312 0.09272419627749576 L16.925137903861305 0.9353202803964223 L18.311574074074073 1.5485859318346624 L19.855324074074073 1.901457040797142 L21.480324074074073 1.972984480360702 L23.085978835978835 1.7622673434856173 L24.55621693121693 1.2679621404399322 L25.817317317317315 0.534161545996972 L26.775828460038984 -0.39828915209625865 L27.364396654719233 -1.4735357580837949 L27.574074074074073 -2.6128595600676814 L27.364396654719233 -3.7521833620515674 L26.775828460038984 -4.827429968039104 L25.817317317317315 -5.759880666132336 L24.55621693121693 -6.493681260575295 L23.085978835978835 -6.98798646362098 L21.480324074074073 -7.198703600496065 L19.855324074074073 -7.127176160932505 L18.311574074074073 -6.774305051970026 L16.925137903861305 -6.161039400531785 L15.812169312169312 -5.318443316412859 z"/>
<path fill="#bababa" stroke="#bababa" d="M42.15 12.947546531302875 L42.15 -8.280879864636207 L41.93260869565217 -9.321489001692045 L41.280434782608694 -10.271044839255499 L40.263207547169806 -11.049805046715218 L38.979268292682924 -11.574946029523307 L37.520370370370365 -11.805549146285184 L-36.779629629629625 -11.805549146285184 L-38.261111111111106 -11.728231159703236 L-39.65 -11.347208121827409 L-40.81666666666666 -10.686768189509303 L-41.65 -9.819171632457879 L-42.08975903614458 -8.811590524534685 L-42.08975903614458 13.478257191201351 L-41.65 14.485838299124545 L-40.81666666666666 15.353434856175971 L-39.65 16.013874788494075 L-38.261111111111106 16.394897826369903 L-36.779629629629625 16.47221581295185 L37.520370370370365 16.47221581295185 L38.979268292682924 16.241612696189975 L40.263207547169806 15.716471713381885 L41.280434782608694 14.937711505922161 L41.93260869565217 13.988155668358711 z M-17.591931216931215 6.214155033840947 L-19.06216931216931 6.708460236886632 L-20.667824074074073 6.919177373761716 L-22.292824074074073 6.847649934198157 L-23.836574074074072 6.494778825235677 L-25.22301024428684 5.881513173797437 L-26.335978835978835 5.03891708967851 L-27.12058570198105 4.027883159675838 L-27.51655195018027 2.9082698815566834 L-27.51655195018027 1.7583967851099829 L-27.12058570198105 0.6387835069908272 L-26.335978835978835 -0.3722504230118443 L-25.22301024428684 -1.214846507130771 L-23.836574074074072 -1.828112158569011 L-22.292824074074073 -2.18098326753149 L-20.667824074074073 -2.2525107070950505 L-19.06216931216931 -2.0417935702199657 L-17.591931216931215 -1.5474883671742805 L-16.33083083083083 -0.8136877727313206 L-15.372319688109162 0.11876292536191012 L-14.783751493428912 1.1940095313494463 L-14.574074074074073 2.333333333333333 L-14.783751493428912 3.47265713531722 L-15.372319688109162 4.547903741304756 L-16.33083083083083 5.480354439397987 z M27.364396654719233 1.1940095313494463 L27.574074074074073 2.333333333333333 L27.364396654719233 3.47265713531722 L26.775828460038984 4.547903741304756 L25.817317317317315 5.480354439397987 L24.55621693121693 6.214155033840947 L23.085978835978835 6.708460236886632 L21.480324074074073 6.919177373761716 L19.855324074074073 6.847649934198157 L18.311574074074073 6.494778825235677 L16.925137903861305 5.881513173797437 L15.812169312169312 5.03891708967851 L15.027562446167096 4.027883159675838 L14.631596197967879 2.9082698815566834 L14.631596197967879 1.7583967851099829 L15.027562446167096 0.6387835069908272 L15.812169312169312 -0.3722504230118443 L16.925137903861305 -1.214846507130771 L18.311574074074073 -1.828112158569011 L19.855324074074073 -2.18098326753149 L21.480324074074073 -2.2525107070950505 L23.085978835978835 -2.0417935702199657 L24.55621693121693 -1.5474883671742805 L25.817317317317315 -0.8136877727313206 L26.775828460038984 0.11876292536191012 z"/>
</svg>