<?xml version="1.0" encoding="UTF-8"?>
<!-- Generated by jsxcad -->
<!DOCTYPE svg PUBLIC "-//W3C//DTD SVG 1.1 Tiny//EN" "http://www.w3.org/Graphics/SVG/1.1/DTD/svg11-tiny.dtd">
<svg baseProfile="tiny" height="38.87674973081066mm" width="84.23975903614463mm" viewBox="-42.089759036144606 -19.138882479618527 84.23975903614463 38.87674973081066" version="1.1" stroke="black" stroke-width=".1" fill="none" xmlns="http://www.w3.org/2000/svg">
<path fill="#bababa" stroke="#bababa" d="M26.775828460038984 -3.384414363602181 L25.817317317317315 -2.4519636655089494 L25.817317317317315 8.147021106064653 L26.775828460038984 7.214570407971422 z"/>
<path fill="#bababa" stroke="#bababa" d="M27.364396654719233 -4.4596609695897165 L26.775828460038984 -3.3844143636021804 L26.775828460038984 7.214570407971422 L27.364396654719233 6.139323801983886 z"/>
<path fill="#bababa" stroke="#bababa" d="M25.817317317317315 -2.45196366550895 L24.556216931216927 -1.7181630710659899 L24.556216931216927 8.880821700507612 L25.817317317317315 8.147021106064653 z"/>
<path fill="#bababa" stroke="#bababa" d="M24.556216931216927 -1.7181630710659899 L23.085978835978832 -1.2238578680203038 L23.085978835978832 9.375126903553298 L24.556216931216927 8.880821700507612 z"/>
<path fill="#bababa" stroke="#bababa" d="M21.48032407407407 -1.0131407311452199 L21.48032407407407 9.585844040428382 L23.085978835978835 9.375126903553296 L23.085978835978835 -1.223857868020305 z"/>
<path fill="#bababa" stroke="#bababa" d="M19.85532407407407 -1.0846681707087809 L19.85532407407407 9.51431660086482 L21.48032407407407 9.58584404042838 L21.48032407407407 -1.013140731145221 z"/>
<path fill="#bababa" stroke="#bababa" d="M18.311574074074073 -1.4375392796712603 L18.311574074074073 9.161445491902342 L19.85532407407407 9.51431660086482 L19.85532407407407 -1.0846681707087813 z"/>
<path fill="#bababa" stroke="#bababa" d="M15.812169312169312 -2.893401015228426 L15.812169312169313 7.705583756345177 L16.92513790386131 8.548179840464103 L16.92513790386131 -2.0508049311094987 z"/>
<path fill="#bababa" stroke="#bababa" d="M27.574074074074073 -5.598984771573603 L27.364396654719233 -4.4596609695897165 L27.364396654719233 6.1393238019838865 L27.574074074074073 4.999999999999999 z"/>
<path fill="#bababa" stroke="#bababa" d="M24.55621693121693 -9.479806472081217 L25.81731731731732 -8.746005877638256 L25.817317317317315 1.852978893935346 L24.55621693121693 1.1191782994923845 z"/>
<path fill="#bababa" stroke="#bababa" d="M27.364396654719233 -6.73830857355749 L27.574074074074073 -5.598984771573603 L27.574074074074073 4.999999999999999 L27.364396654719233 3.860676198016112 z"/>
<path fill="#bababa" stroke="#bababa" d="M23.085978835978832 -9.974111675126908 L23.085978835978832 0.6248730964467001 L21.48032407407407 0.41415595957161516 L21.48032407407407 -10.184828812001992 z"/>
<path fill="#bababa" stroke="#bababa" d="M18.311574074074073 -9.760430263475952 L19.85532407407407 -10.11330137243843 L19.85532407407407 0.48568339913517494 L18.311574074074073 0.8385545080976539 z"/>
<path fill="#bababa" stroke="#bababa" d="M24.556216931216927 1.119178299492379 L23.085978835978832 0.624873096446693 L23.085978835978832 -9.974111675126906 L24.556216931216927 -9.47980647208122 z"/>
<path fill="#bababa" stroke="#bababa" d="M16.71969552282297 -8.991630172820688 L16.925137903861305 -9.147164612037708 L16.925137903861305 1.4518201595358948 L15.812169312169308 2.2944162436548208 L15.81216931216931 -8.304568527918779 z"/>
<path fill="#bababa" stroke="#bababa" d="M16.925137903861305 -9.14716461203771 L18.311574074074073 -9.76043026347595 L18.311574074074073 0.838554508097653 L16.925137903861305 1.4518201595358933 z"/>
<path fill="#bababa" stroke="#bababa" d="M26.775828460038987 -7.813555179545027 L27.364396654719233 -6.73830857355749 L27.364396654719233 3.8606761980161126 L26.775828460038984 2.7854295920285765 z"/>
<path fill="#bababa" stroke="#bababa" d="M21.48032407407407 0.4141559595716156 L19.85532407407407 0.48568339913517566 L19.85532407407407 -10.113301372438428 L21.48032407407407 -10.184828812001989 z"/>
<path fill="#bababa" stroke="#bababa" d="M26.775828460038987 2.7854295920285765 L25.817317317317315 1.852978893935346 L25.817317317317315 -8.746005877638256 L26.775828460038987 -7.813555179545027 z"/>
<path fill="#bababa" stroke="#bababa" d="M15.81216931216931 -8.30456852791878 L15.81216931216931 2.294416243654822 L15.027562446167096 3.3054501736574937 L15.027562446167096 -7.293534597916109 z"/>
<path fill="#bababa" stroke="#bababa" d="M14.631596197967879 -6.173921319796953 L15.027562446167096 -7.293534597916109 L15.027562446167096 3.3054501736574933 L14.631596197967879 4.42506345177665 z"/>
<path fill="#bababa" stroke="#bababa" d="M14.631596197967879 -5.0240482233502535 L14.631596197967879 -6.173921319796954 L14.631596197967879 4.42506345177665 L14.631596197967879 5.5749365482233495 z"/>
<path fill="#bababa" stroke="#bababa" d="M14.631596197967879 5.5749365482233495 L15.027562446167096 6.694549826342506 L15.027562446167098 -3.9044349452310976 L14.631596197967879 -5.0240482233502535 z"/>
<path fill="#bababa" stroke="#bababa" d="M-20.66782407407407 -1.0131407311452227 L-20.66782407407407 9.58584404042838 L-19.06216931216931 9.375126903553296 L-19.06216931216931 -1.2238578680203074 z"/>
<path fill="#bababa" stroke="#bababa" d="M-22.29282407407407 9.51431660086482 L-20.66782407407407 9.58584404042838 L-20.66782407407407 -1.013140731145221 L-22.29282407407407 -1.0846681707087809 z"/>
<path fill="#bababa" stroke="#bababa" d="M-22.29282407407407 -10.113301372438428 L-20.66782407407407 -10.184828812001989 L-20.66782407407407 0.4141559595716156 L-22.29282407407407 0.4856833991351756 z"/>
<path fill="#bababa" stroke="#bababa" d="M-19.06216931216931 0.6248730964466974 L-20.66782407407407 0.41415595957161283 L-20.66782407407407 -10.18482881200199 L-19.06216931216931 -9.974111675126906 z"/>
<path fill="#bababa" stroke="#bababa" d="M-23.836574074074072 -9.760430263475948 L-22.29282407407407 -10.113301372438428 L-22.29282407407407 0.485683399135173 L-23.836574074074072 0.8385545080976528 z"/>
<path fill="#bababa" stroke="#bababa" d="M-17.59193121693121 1.1191782994923862 L-19.06216931216931 0.6248730964467002 L-19.06216931216931 -9.974111675126903 L-17.59193121693121 -9.479806472081217 z"/>
<path fill="#bababa" stroke="#bababa" d="M-23.836574074074072 0.8385545080976542 L-25.223010244286836 1.4518201595358946 L-25.223010244286836 -9.147164612037711 L-23.836574074074072 -9.760430263475952 z"/>
<path fill="#bababa" stroke="#bababa" d="M-16.330830830830827 1.852978893935346 L-17.59193121693121 1.1191782994923845 L-17.591931216931215 -9.479806472081217 L-16.330830830830827 -8.746005877638256 z"/>
<path fill="#bababa" stroke="#bababa" d="M-25.22301024428684 1.4518201595358948 L-26.33597883597884 2.2944162436548208 L-26.335978835978835 -8.304568527918779 L-25.22301024428684 -9.147164612037708 z"/>
<path fill="#bababa" stroke="#bababa" d="M-15.37231968810916 2.7854295920285765 L-16.330830830830827 1.852978893935346 L-16.330830830830827 -8.746005877638256 L-15.37231968810916 -7.813555179545027 z"/>
<path fill="#bababa" stroke="#bababa" d="M-27.12058570198105 -7.293534597916109 L-26.335978835978835 -8.30456852791878 L-26.335978835978835 2.294416243654822 L-27.12058570198105 3.3054501736574937 z"/>
<path fill="#bababa" stroke="#bababa" d="M-14.783751493428912 3.8606761980161126 L-15.37231968810916 2.7854295920285765 L-15.37231968810916 -7.813555179545027 L-14.78375149342891 -6.73830857355749 z"/>
<path fill="#bababa" stroke="#bababa" d="M-14.574074074074073 4.999999999999999 L-14.783751493428912 3.860676198016112 L-14.783751493428912 -6.73830857355749 L-14.574074074074073 -5.598984771573603 z"/>
<path fill="#bababa" stroke="#bababa" d="M-27.51655195018027 5.5749365482233495 L-27.12058570198105 6.694549826342506 L-27.12058570198105 -3.9044349452310976 L-27.51655195018027 -5.0240482233502535 z"/>
<path fill="#bababa" stroke="#bababa" d="M-16.33083083083083 8.147021106064653 L-15.372319688109162 7.214570407971422 L-15.372319688109162 -3.384414363602181 L-16.33083083083083 -2.4519636655089494 z"/>
<path fill="#bababa" stroke="#bababa" d="M-27.51655195018027 4.42506345177665 L-27.51655195018027 5.5749365482233495 L-27.51655195018027 -5.0240482233502535 L-27.51655195018027 -6.173921319796954 z"/>
<path fill="#bababa" stroke="#bababa" d="M-25.223010244286836 8.548179840464101 L-23.836574074074072 9.161445491902342 L-23.836574074074072 -1.437539279671259 L-25.223010244286836 -2.050804931109499 z"/>
<path fill="#bababa" stroke="#bababa" d="M-17.59193121693121 -1.7181630710659919 L-19.06216931216931 -1.223857868020306 L-19.06216931216931 9.375126903553296 L-17.59193121693121 8.88082170050761 z"/>
<path fill="#bababa" stroke="#bababa" d="M-27.51655195018027 -6.173921319796953 L-27.12058570198105 -7.293534597916109 L-27.12058570198105 3.3054501736574933 L-27.51655195018027 4.42506345177665 z"/>
<path fill="#bababa" stroke="#bababa" d="M-14.783751493428912 -4.4596609695897165 L-15.372319688109162 -3.3844143636021804 L-15.372319688109162 7.214570407971422 L-14.783751493428912 6.139323801983886 z"/>
<path fill="#bababa" stroke="#bababa" d="M-25.223010244286836 -2.0508049311094987 L-26.335978835978832 -2.893401015228426 L-26.335978835978832 7.705583756345177 L-25.223010244286836 8.548179840464103 z"/>
<path fill="#bababa" stroke="#bababa" d="M-27.12058570198105 6.694549826342505 L-26.335978835978835 7.705583756345177 L-26.335978835978835 -2.893401015228426 L-27.12058570198105 -3.904434945231097 z"/>
<path fill="#bababa" stroke="#bababa" d="M-17.591931216931215 8.880821700507612 L-16.33083083083083 8.147021106064653 L-16.33083083083083 -2.45196366550895 L-17.59193121693122 -1.7181630710659899 z"/>
<path fill="#bababa" stroke="#bababa" d="M-14.783751493428912 6.1393238019838865 L-14.574074074074073 4.999999999999999 L-14.574074074074073 -5.598984771573603 L-14.783751493428912 -4.4596609695897165 z"/>
<path fill="#bababa" stroke="#bababa" d="M-23.836574074074072 9.161445491902342 L-22.29282407407407 9.514316600864822 L-22.29282407407407 -1.0846681707087793 L-23.836574074074072 -1.4375392796712592 z"/>
<path fill="#bababa" stroke="#bababa" d="M37.520370370370365 19.138882479618516 L-36.779629629629625 19.138882479618516 L-36.779629629629625 8.539897708044915 L37.520370370370365 8.539897708044915 z"/>
<path fill="#bababa" stroke="#bababa" d="M38.97926829268292 18.90827936285664 L37.52037037037036 19.138882479618516 L37.52037037037036 8.539897708044915 L38.97926829268292 8.309294591283038 z"/>
<path fill="#bababa" stroke="#bababa" d="M40.2632075471698 18.383138380048553 L38.97926829268292 18.90827936285664 L38.97926829268292 8.309294591283038 L40.2632075471698 7.78415360847495 z"/>
<path fill="#bababa" stroke="#bababa" d="M41.28043478260869 17.60437817258883 L40.2632075471698 18.38313838004855 L40.263207547169806 7.784153608474948 L41.280434782608694 7.005393401015228 z"/>
<path fill="#bababa" stroke="#bababa" d="M41.93260869565216 16.654822335025376 L41.28043478260869 17.60437817258883 L41.28043478260869 7.005393401015228 L41.93260869565217 6.0558375634517745 z"/>
<path fill="#bababa" stroke="#bababa" d="M42.15 15.61421319796954 L41.93260869565216 16.654822335025376 L41.93260869565216 6.055837563451774 L42.14999999999999 5.015228426395939 z"/>
<path fill="#bababa" stroke="#bababa" d="M42.15 -5.614213197969542 L42.15 15.614213197969542 L42.15 5.015228426395939 L42.15 -16.213197969543145 z"/>
<path fill="#bababa" stroke="#bababa" d="M41.93260869565217 -6.654822335025379 L42.15 -5.614213197969542 L42.15 -16.213197969543142 L41.93260869565217 -17.25380710659898 z"/>
<path fill="#bababa" stroke="#bababa" d="M41.280434782608694 -7.604378172588831 L41.93260869565217 -6.654822335025378 L41.93260869565217 -17.253807106598977 L41.280434782608694 -18.203362944162432 z"/>
<path fill="#bababa" stroke="#bababa" d="M40.263207547169806 -8.383138380048553 L41.280434782608694 -7.604378172588829 L41.280434782608694 -18.203362944162436 L40.263207547169806 -18.982123151622154 z"/>
<path fill="#bababa" stroke="#bababa" d="M38.97926829268292 -8.908279362856645 L40.2632075471698 -8.383138380048555 L40.2632075471698 -18.98212315162216 L38.97926829268292 -19.50726413443025 z"/>
<path fill="#bababa" stroke="#bababa" d="M37.52037037037036 -9.138882479618522 L38.97926829268292 -8.908279362856645 L38.97926829268292 -19.50726413443025 L37.52037037037036 -19.737867251192128 z"/>
<path fill="#bababa" stroke="#bababa" d="M-36.779629629629625 -9.138882479618523 L37.520370370370365 -9.138882479618523 L37.520370370370365 -19.737867251192128 L-36.779629629629625 -19.737867251192128 z"/>
<path fill="#bababa" stroke="#bababa" d="M-38.2611111111111 -9.061564493036578 L-36.77962962962962 -9.138882479618525 L-36.77962962962962 -19.73786725119212 L-38.2611111111111 -19.660549264610175 z"/>
<path fill="#bababa" stroke="#bababa" d="M-39.64999999999999 -8.680541455160748 L-38.2611111111111 -9.061564493036576 L-38.2611111111111 -19.66054926461018 L-39.64999999999999 -19.27952622673435 z"/>
<path fill="#bababa" stroke="#bababa" d="M-40.81666666666666 -8.020101522842637 L-39.65 -8.680541455160741 L-39.65 -19.279526226734344 L-40.81666666666666 -18.61908629441624 z"/>
<path fill="#bababa" stroke="#bababa" d="M-41.65 -7.152504965791212 L-40.81666666666666 -8.020101522842637 L-40.81666666666666 -18.61908629441624 L-41.65 -17.751489737364818 z"/>
<path fill="#bababa" stroke="#bababa" d="M-42.08975903614458 -6.14492385786802 L-41.65 -7.152504965791213 L-41.65 -17.751489737364814 L-42.08975903614458 -16.743908629441624 z"/>
<path fill="#bababa" stroke="#bababa" d="M-42.08975903614458 16.14492385786802 L-42.08975903614458 -6.14492385786802 L-42.08975903614458 -16.743908629441624 L-42.08975903614458 5.545939086294416 z"/>
<path fill="#bababa" stroke="#bababa" d="M-41.65 17.152504965791213 L-42.08975903614457 16.14492385786802 L-42.08975903614458 5.545939086294415 L-41.65 6.55352019421761 z"/>
<path fill="#bababa" stroke="#bababa" d="M-40.816666666666656 18.020101522842637 L-41.65 17.15250496579121 L-41.64999999999999 6.553520194217609 L-40.816666666666656 7.421116751269034 z"/>
<path fill="#bababa" stroke="#bababa" d="M-39.64999999999999 18.68054145516074 L-40.816666666666656 18.020101522842637 L-40.816666666666656 7.421116751269033 L-39.65 8.081556683587138 z"/>
<path fill="#bababa" stroke="#bababa" d="M-38.2611111111111 19.06156449303657 L-39.64999999999999 18.680541455160743 L-39.64999999999999 8.08155668358714 L-38.2611111111111 8.462579721462967 z"/>
<path fill="#bababa" stroke="#bababa" d="M-36.77962962962962 19.138882479618516 L-38.2611111111111 19.06156449303657 L-38.2611111111111 8.462579721462967 L-36.77962962962962 8.539897708044915 z"/>
<path fill="#bababa" stroke="#bababa" d="M15.027562446167098 6.694549826342505 L15.812169312169312 7.705583756345177 L15.812169312169312 -2.893401015228426 L15.027562446167098 -3.904434945231097 z"/>
<path fill="#bababa" stroke="#bababa" d="M16.925137903861305 -2.0508049311095027 L16.925137903861305 8.548179840464103 L18.311574074074073 9.161445491902343 L18.311574074074073 -1.4375392796712625 z"/>
<path fill="#bababa" stroke="#bababa" d="M41.93260869565217 -17.253807106598977 L42.15 -16.213197969543145 L42.15 5.015228426395939 L41.93260869565217 6.0558375634517745 L41.280434782608694 7.005393401015227 L40.263207547169806 7.784153608474948 L38.979268292682924 8.309294591283038 L37.520370370370365 8.539897708044915 L-36.779629629629625 8.539897708044915 L-38.261111111111106 8.462579721462966 L-39.65 8.081556683587138 L-40.81666666666666 7.421116751269033 L-41.65 6.55352019421761 L-42.08975903614458 5.545939086294416 L-42.08975903614458 -16.74390862944162 L-41.65 -17.751489737364814 L-40.81666666666666 -18.619086294416242 L-39.65 -19.279526226734344 L-38.261111111111106 -19.66054926461017 L-36.779629629629625 -19.73786725119212 L37.520370370370365 -19.73786725119212 L38.979268292682924 -19.507264134430244 L40.263207547169806 -18.982123151622154 L41.280434782608694 -18.203362944162432 z M-19.864996693121693 -1.1184992995827618 L-19.06216931216931 -1.2238578680203043 L-17.591931216931215 -1.7181630710659896 L-16.33083083083083 -2.45196366550895 L-15.372319688109162 -3.3844143636021804 L-14.783751493428912 -4.4596609695897165 L-14.574074074074073 -5.598984771573604 L-14.783751493428912 -6.7383085735574895 L-15.372319688109162 -7.813555179545026 L-16.33083083083083 -8.746005877638256 L-17.591931216931215 -9.479806472081217 L-19.06216931216931 -9.974111675126903 L-20.667824074074073 -10.184828812001987 L-22.292824074074073 -10.113301372438427 L-23.836574074074072 -9.760430263475948 L-25.22301024428684 -9.147164612037706 L-26.335978835978835 -8.30456852791878 L-27.12058570198105 -7.29353459791611 L-27.51655195018027 -6.173921319796953 L-27.51655195018027 -5.024048223350253 L-27.12058570198105 -3.904434945231097 L-26.335978835978835 -2.893401015228426 L-25.22301024428684 -2.0508049311094996 L-23.836574074074072 -1.4375392796712592 L-22.292824074074073 -1.0846681707087797 L-20.667824074074073 -1.0131407311452196 z M15.812169312169312 -8.30456852791878 L15.027562446167096 -7.29353459791611 L14.631596197967879 -6.173921319796953 L14.631596197967879 -5.024048223350253 L15.027562446167096 -3.904434945231097 L15.812169312169312 -2.893401015228426 L16.925137903861305 -2.0508049311094996 L18.311574074074073 -1.4375392796712592 L19.855324074074073 -1.0846681707087797 L21.480324074074073 -1.0131407311452196 L23.085978835978835 -1.2238578680203043 L24.55621693121693 -1.7181630710659896 L25.817317317317315 -2.45196366550895 L26.775828460038984 -3.3844143636021804 L27.364396654719233 -4.4596609695897165 L27.574074074074073 -5.598984771573604 L27.364396654719233 -6.7383085735574895 L26.775828460038984 -7.813555179545026 L25.817317317317315 -8.746005877638256 L24.55621693121693 -9.479806472081217 L23.085978835978835 -9.974111675126903 L21.480324074074073 -10.184828812001987 L19.855324074074073 -10.113301372438427 L18.311574074074073 -9.760430263475948 L16.925137903861305 -9.147164612037706 z"/>
<path fill="#bababa" stroke="#bababa" d="M42.15 15.61421319796954 L42.15 -5.614213197969542 L41.93260869565217 -6.654822335025378 L41.280434782608694 -7.604378172588831 L40.263207547169806 -8.383138380048551 L38.979268292682924 -8.908279362856641 L37.520370370370365 -9.138882479618518 L-36.779629629629625 -9.138882479618518 L-38.261111111111106 -9.06156449303657 L-39.65 -8.680541455160743 L-40.81666666666666 -8.020101522842637 L-41.65 -7.152504965791214 L-42.08975903614458 -6.14492385786802 L-42.08975903614458 16.144923857868015 L-41.65 17.15250496579121 L-40.81666666666666 18.020101522842637 L-39.65 18.680541455160743 L-38.261111111111106 19.061564493036567 L-36.779629629629625 19.138882479618516 L37.520370370370365 19.138882479618516 L38.979268292682924 18.90827936285664 L40.263207547169806 18.38313838004855 L41.280434782608694 17.604378172588827 L41.93260869565217 16.654822335025376 z M-17.591931216931215 8.880821700507612 L-19.06216931216931 9.375126903553298 L-20.667824074074073 9.585844040428384 L-22.292824074074073 9.514316600864822 L-23.836574074074072 9.161445491902343 L-25.22301024428684 8.548179840464103 L-26.335978835978835 7.7055837563451774 L-27.12058570198105 6.694549826342506 L-27.51655195018027 5.5749365482233495 L-27.51655195018027 4.425063451776649 L-27.12058570198105 3.3054501736574937 L-26.335978835978835 2.2944162436548217 L-25.22301024428684 1.4518201595358953 L-23.836574074074072 0.8385545080976552 L-22.292824074074073 0.4856833991351757 L-20.667824074074073 0.4141559595716157 L-19.06216931216931 0.6248730964467004 L-17.591931216931215 1.1191782994923856 L-16.33083083083083 1.8529788939353458 L-15.372319688109162 2.7854295920285765 L-14.783751493428912 3.860676198016113 L-14.574074074074073 4.999999999999999 L-14.783751493428912 6.139323801983886 L-15.372319688109162 7.214570407971422 L-16.33083083083083 8.147021106064653 z M27.364396654719233 3.860676198016113 L27.574074074074073 4.999999999999999 L27.364396654719233 6.139323801983886 L26.775828460038984 7.214570407971422 L25.817317317317315 8.147021106064653 L24.55621693121693 8.880821700507612 L23.085978835978835 9.375126903553298 L21.480324074074073 9.585844040428384 L19.855324074074073 9.514316600864822 L18.311574074074073 9.161445491902343 L16.925137903861305 8.548179840464103 L15.812169312169312 7.7055837563451774 L15.027562446167096 6.694549826342506 L14.631596197967879 5.5749365482233495 L14.631596197967879 4.425063451776649 L15.027562446167096 3.3054501736574937 L15.812169312169312 2.2944162436548217 L16.925137903861305 1.4518201595358953 L18.311574074074073 0.8385545080976552 L19.855324074074073 0.4856833991351757 L21.480324074074073 0.4141559595716157 L23.085978835978835 0.6248730964467004 L24.55621693121693 1.1191782994923856 L25.817317317317315 1.8529788939353458 L26.775828460038984 2.7854295920285765 z"/>
</svg>